<svg width="299" height="41" viewBox="0 0 299 41" fill="none" xmlns="http://www.w3.org/2000/svg">
<path d="M4.92749 12C6.3689 12 7.61987 11.7393 8.68042 11.2178C9.74097 10.6904 10.5496 9.99023 11.1062 9.11719C11.6628 8.23828 11.9412 7.28906 11.9412 6.26953C11.9412 4.69922 11.4314 3.41895 10.4119 2.42871C9.39819 1.43848 7.64624 0.943359 5.15601 0.943359C4.52319 0.943359 3.77026 0.984375 2.89722 1.06641C2.02417 1.14258 1.15991 1.24805 0.304443 1.38281L0.234131 2.41113L1.74585 2.74512V10.374L0.198975 11.0684L0.0407715 12H4.92749ZM4.20679 2.32324C4.32983 2.31738 4.42358 2.30859 4.48804 2.29688C4.59351 2.28516 4.70483 2.2793 4.82202 2.2793C5.79468 2.2793 6.61206 2.49023 7.27417 2.91211C7.93628 3.33398 8.42847 3.88477 8.75073 4.56445C9.073 5.24414 9.23413 5.9707 9.23413 6.74414C9.23413 7.40625 9.10522 8.0332 8.84741 8.625C8.5896 9.21094 8.15601 9.69727 7.54663 10.084C6.94312 10.4648 6.1521 10.6553 5.17358 10.6553H4.20679V2.32324ZM16.8902 12.2373C17.652 12.2373 18.3346 12.0586 18.9381 11.7012C19.5416 11.3379 20.0133 10.8281 20.3531 10.1719C20.693 9.51562 20.8629 8.75977 20.8629 7.9043C20.8629 7.04883 20.7164 6.31934 20.4234 5.71582C20.1305 5.10645 19.6998 4.64355 19.1314 4.32715C18.5689 4.01074 17.8893 3.85254 17.0924 3.85254C16.4186 3.85254 15.7682 4.02246 15.1412 4.3623C14.5143 4.70215 14.0016 5.19434 13.6031 5.83887C13.2047 6.47754 13.0055 7.22461 13.0055 8.08008C13.0055 8.85938 13.1402 9.5625 13.4098 10.1895C13.6793 10.8105 14.1041 11.3086 14.6842 11.6836C15.2701 12.0527 16.0055 12.2373 16.8902 12.2373ZM16.7408 5.23242C17.4205 5.23242 17.898 5.58398 18.1734 6.28711C18.4547 6.99023 18.5953 7.8457 18.5953 8.85352C18.5953 9.50977 18.4781 10.0254 18.2437 10.4004C18.0094 10.7695 17.6549 10.9541 17.1803 10.9541C16.5123 10.9541 16.023 10.6436 15.7125 10.0225C15.4078 9.39551 15.2555 8.55469 15.2555 7.5C15.2555 6.80273 15.3727 6.25195 15.607 5.84766C15.8473 5.4375 16.2252 5.23242 16.7408 5.23242ZM28.1946 15.3486C28.7395 15.3486 29.2083 15.252 29.6009 15.0586C29.9934 14.8652 30.3509 14.5488 30.6731 14.1094C31.0013 13.6699 31.3294 13.0664 31.6575 12.2988L34.5315 5.5752L35.4016 5.12695L35.5071 4.10742H32.1585L31.9739 5.12695L33.0638 5.60156L31.4378 9.60938L29.9173 5.54004L30.8665 5.12695L30.9983 4.10742H26.7181L26.5599 5.14453L27.6673 5.5752L30.2864 12.0791L30.1458 12.3955C29.9817 12.7529 29.7825 12.9961 29.5481 13.125C29.3196 13.2539 29.0618 13.3184 28.7747 13.3184C28.47 13.3184 28.1741 13.2656 27.887 13.1602C27.5999 13.0605 27.345 12.9111 27.1224 12.7119C26.8821 12.9404 26.7181 13.1631 26.6302 13.3799C26.5481 13.6025 26.5071 13.8457 26.5071 14.1094C26.5071 14.3262 26.5862 14.5283 26.7444 14.7158C26.9026 14.9092 27.1106 15.0615 27.3684 15.1729C27.6263 15.29 27.9016 15.3486 28.1946 15.3486ZM40.3947 12.2373C41.1564 12.2373 41.839 12.0586 42.4425 11.7012C43.046 11.3379 43.5177 10.8281 43.8576 10.1719C44.1974 9.51562 44.3673 8.75977 44.3673 7.9043C44.3673 7.04883 44.2208 6.31934 43.9279 5.71582C43.6349 5.10645 43.2042 4.64355 42.6359 4.32715C42.0734 4.01074 41.3937 3.85254 40.5968 3.85254C39.923 3.85254 39.2726 4.02246 38.6456 4.3623C38.0187 4.70215 37.506 5.19434 37.1076 5.83887C36.7091 6.47754 36.5099 7.22461 36.5099 8.08008C36.5099 8.85938 36.6447 9.5625 36.9142 10.1895C37.1837 10.8105 37.6085 11.3086 38.1886 11.6836C38.7745 12.0527 39.5099 12.2373 40.3947 12.2373ZM40.2453 5.23242C40.9249 5.23242 41.4025 5.58398 41.6779 6.28711C41.9591 6.99023 42.0997 7.8457 42.0997 8.85352C42.0997 9.50977 41.9826 10.0254 41.7482 10.4004C41.5138 10.7695 41.1593 10.9541 40.6847 10.9541C40.0167 10.9541 39.5275 10.6436 39.2169 10.0225C38.9122 9.39551 38.7599 8.55469 38.7599 7.5C38.7599 6.80273 38.8771 6.25195 39.1115 5.84766C39.3517 5.4375 39.7296 5.23242 40.2453 5.23242ZM46.4951 9.65332C46.4951 10.5732 46.665 11.2354 47.0049 11.6396C47.3506 12.0381 47.8984 12.2373 48.6484 12.2373C49.1348 12.2373 49.5918 12.1172 50.0195 11.877C50.4531 11.6367 50.8105 11.291 51.0918 10.8398L51.206 10.8574V10.9629C51.206 11.3789 51.3408 11.6982 51.6103 11.9209C51.8799 12.1436 52.249 12.2549 52.7178 12.2549C53.0166 12.2549 53.3037 12.2256 53.5791 12.167C53.8603 12.1143 54.1562 12.0293 54.4668 11.9121L54.6074 10.8047L54.291 10.7168C54.0039 10.6348 53.7871 10.5527 53.6406 10.4707C53.4941 10.3828 53.3857 10.2598 53.3154 10.1016C53.2451 9.9375 53.2099 9.70898 53.2099 9.41602V4.37109L52.8848 4.02832L50.0195 4.33594L49.8262 5.6543L51.039 6.17285V9.64453C50.8398 9.83203 50.6406 9.97266 50.4414 10.0664C50.2422 10.1543 50.0019 10.1982 49.7207 10.1982C49.375 10.1982 49.1142 10.0723 48.9385 9.82031C48.7685 9.56836 48.6836 9.14355 48.6836 8.5459V4.40625L48.332 4.06348L45.5547 4.24805L45.3437 5.4082L46.4951 6.11133V9.65332ZM64.7077 10.9277L63.5651 10.4883V6.62109C63.7995 6.39258 64.0251 6.23438 64.2419 6.14648C64.4587 6.05273 64.6901 6.00586 64.9362 6.00586C65.2819 6.00586 65.5632 6.12891 65.78 6.375C66.0026 6.62109 66.1139 7.01953 66.1139 7.57031L66.0964 10.5059L65.5075 10.998L65.4548 12.0088H69.3483L69.4977 10.9365L68.2057 10.5059V6.55957C68.2057 5.62207 68.0182 4.95703 67.6432 4.56445C67.2682 4.16602 66.7409 3.9668 66.0612 3.9668C65.5983 3.9668 65.1501 4.09277 64.7165 4.34473C64.2887 4.59082 63.8639 4.93945 63.4421 5.39062L63.3366 5.37305L63.4948 4.31836V0.908203L63.1257 0.556641L60.1374 0.776367L59.9792 1.83105L61.4382 2.50781V10.4883L60.1374 10.9717L60.0143 12.0088H64.5319L64.7077 10.9277ZM72.4341 12.2109C72.8091 12.2109 73.1577 12.1406 73.48 12C73.8081 11.8652 74.0835 11.6953 74.3062 11.4902C74.5347 11.2852 74.6929 11.0801 74.7808 10.875L74.8863 10.9014L74.9126 11.0244C74.9947 11.3877 75.1353 11.6719 75.3345 11.877C75.5396 12.082 75.8677 12.1846 76.3189 12.1846C76.647 12.1846 76.9107 12.1582 77.1099 12.1055C77.315 12.0527 77.5171 11.9648 77.7163 11.8418L77.8833 10.7168L77.5406 10.6553C77.2593 10.6025 77.0601 10.5322 76.9429 10.4443C76.8316 10.3506 76.7642 10.2305 76.7407 10.084C76.7173 9.9375 76.7056 9.69141 76.7056 9.3457V6.57715C76.7056 5.63965 76.5093 4.95703 76.1167 4.5293C75.7241 4.0957 75.1587 3.87891 74.4204 3.87891C73.9224 3.87891 73.3921 3.98438 72.8296 4.19531C72.2671 4.40039 71.7954 4.66406 71.4146 4.98633C71.0396 5.30859 70.8521 5.62793 70.8521 5.94434C70.8521 6.36035 71.0015 6.63574 71.3003 6.77051C71.5991 6.90527 71.9888 6.97266 72.4693 6.97266C72.5103 6.45703 72.5542 6.07324 72.6011 5.82129C72.648 5.56934 72.7241 5.38477 72.8296 5.26758C72.9409 5.14453 73.1021 5.08301 73.313 5.08301C73.7407 5.08301 74.0689 5.26172 74.2974 5.61914C74.5259 5.97656 74.6402 6.42188 74.6402 6.95508V7.61426C73.7613 7.64355 73.02 7.79004 72.4165 8.05371C71.813 8.31738 71.3589 8.65723 71.0542 9.07324C70.7554 9.48926 70.606 9.94336 70.606 10.4355C70.606 11.0039 70.773 11.4434 71.107 11.7539C71.4468 12.0586 71.8892 12.2109 72.4341 12.2109ZM74.6402 10.1455C74.4878 10.2861 74.3091 10.4092 74.104 10.5146C73.9048 10.6143 73.7085 10.6641 73.5152 10.6641C73.2573 10.6641 73.0523 10.5791 72.8999 10.4092C72.7534 10.2393 72.6802 10.0459 72.6802 9.8291C72.6802 9.48926 72.8296 9.19043 73.1284 8.93262C73.4331 8.6748 73.937 8.4873 74.6402 8.37012V10.1455ZM79.9144 5.5752L82.3226 12.2637L84.1068 12.0703L86.4535 5.54883L87.2972 5.12695L87.4642 4.10742H84.098L83.9222 5.12695L84.9945 5.5752L83.5707 9.68848L82.2435 5.54883L83.2894 5.12695L83.4125 4.10742H79.0267L78.8861 5.12695L79.9144 5.5752ZM91.8684 12.2725C92.4367 12.2725 92.9992 12.1758 93.5559 11.9824C94.1125 11.7891 94.5695 11.5078 94.927 11.1387L94.7512 10.1455C94.4055 10.3271 94.0686 10.4473 93.7404 10.5059C93.4182 10.5586 93.0608 10.585 92.6682 10.585C92.0061 10.585 91.5051 10.3828 91.1653 9.97852C90.8254 9.57422 90.6379 9.05859 90.6028 8.43164L94.5666 8.34375C94.6018 8.18555 94.6369 7.93945 94.6721 7.60547C94.7131 7.27148 94.7336 7.03418 94.7336 6.89355C94.7336 6.28418 94.6281 5.75098 94.4172 5.29395C94.2121 4.83691 93.9192 4.48535 93.5383 4.23926C93.1574 3.99316 92.7151 3.87012 92.2112 3.87012C91.5783 3.87012 90.966 4.05469 90.3742 4.42383C89.7883 4.78711 89.3078 5.2998 88.9328 5.96191C88.5637 6.62402 88.3791 7.37988 88.3791 8.22949C88.3791 9.09082 88.5344 9.82617 88.8449 10.4355C89.1555 11.0449 89.5744 11.5049 90.1018 11.8154C90.6291 12.1201 91.218 12.2725 91.8684 12.2725ZM91.719 5.33789C92.0529 5.33789 92.299 5.46387 92.4572 5.71582C92.6154 5.96191 92.6945 6.2959 92.6945 6.71777C92.6945 6.7998 92.6887 6.90527 92.677 7.03418C92.6711 7.16309 92.6594 7.25391 92.6418 7.30664L90.5764 7.50879C90.5881 7.06348 90.6467 6.67676 90.7522 6.34863C90.8576 6.02051 90.9953 5.77148 91.1653 5.60156C91.3352 5.42578 91.5197 5.33789 91.719 5.33789ZM101.441 9.55664C101.435 10.2188 101.509 10.7432 101.661 11.1299C101.819 11.5166 102.059 11.792 102.382 11.9561C102.704 12.1201 103.129 12.2021 103.656 12.2021C104.236 12.2021 104.749 12.0791 105.194 11.833C105.645 11.5869 106.003 11.2793 106.267 10.9102L106.047 10.0928C106.017 10.1104 105.947 10.1484 105.836 10.207C105.73 10.2656 105.593 10.3242 105.423 10.3828C105.259 10.4355 105.092 10.4619 104.922 10.4619C104.447 10.4619 104.11 10.3535 103.911 10.1367C103.718 9.91992 103.621 9.55664 103.621 9.04688L103.639 5.67188H106.02L106.108 4.42383H103.665V2.49023H102.716C102.405 2.93555 102.054 3.35742 101.661 3.75586C101.274 4.14844 100.879 4.48242 100.475 4.75781V5.64551H101.468L101.441 9.55664ZM112.015 10.9277L110.873 10.4883V6.62109C111.107 6.39258 111.333 6.23438 111.55 6.14648C111.766 6.05273 111.998 6.00586 112.244 6.00586C112.59 6.00586 112.871 6.12891 113.088 6.375C113.31 6.62109 113.422 7.01953 113.422 7.57031L113.404 10.5059L112.815 10.998L112.762 12.0088H116.656L116.805 10.9365L115.513 10.5059V6.55957C115.513 5.62207 115.326 4.95703 114.951 4.56445C114.576 4.16602 114.049 3.9668 113.369 3.9668C112.906 3.9668 112.458 4.09277 112.024 4.34473C111.596 4.59082 111.172 4.93945 110.75 5.39062L110.644 5.37305L110.802 4.31836V0.908203L110.433 0.556641L107.445 0.776367L107.287 1.83105L108.746 2.50781V10.4883L107.445 10.9717L107.322 12.0088H111.84L112.015 10.9277ZM121.315 12.2725C121.883 12.2725 122.446 12.1758 123.003 11.9824C123.559 11.7891 124.016 11.5078 124.374 11.1387L124.198 10.1455C123.852 10.3271 123.515 10.4473 123.187 10.5059C122.865 10.5586 122.507 10.585 122.115 10.585C121.453 10.585 120.952 10.3828 120.612 9.97852C120.272 9.57422 120.085 9.05859 120.049 8.43164L124.013 8.34375C124.048 8.18555 124.084 7.93945 124.119 7.60547C124.16 7.27148 124.18 7.03418 124.18 6.89355C124.18 6.28418 124.075 5.75098 123.864 5.29395C123.659 4.83691 123.366 4.48535 122.985 4.23926C122.604 3.99316 122.162 3.87012 121.658 3.87012C121.025 3.87012 120.413 4.05469 119.821 4.42383C119.235 4.78711 118.755 5.2998 118.38 5.96191C118.01 6.62402 117.826 7.37988 117.826 8.22949C117.826 9.09082 117.981 9.82617 118.292 10.4355C118.602 11.0449 119.021 11.5049 119.548 11.8154C120.076 12.1201 120.665 12.2725 121.315 12.2725ZM121.166 5.33789C121.5 5.33789 121.746 5.46387 121.904 5.71582C122.062 5.96191 122.141 6.2959 122.141 6.71777C122.141 6.7998 122.135 6.90527 122.124 7.03418C122.118 7.16309 122.106 7.25391 122.088 7.30664L120.023 7.50879C120.035 7.06348 120.093 6.67676 120.199 6.34863C120.304 6.02051 120.442 5.77148 120.612 5.60156C120.782 5.42578 120.966 5.33789 121.166 5.33789ZM135.599 10.875L133.437 10.418V5.47852H135.617L135.722 4.35352H133.437L133.454 3.49219C133.46 2.79492 133.551 2.31738 133.727 2.05957C133.903 1.7959 134.152 1.66406 134.474 1.66406C134.732 1.66406 134.966 1.77832 135.177 2.00684C135.388 2.23535 135.617 2.5459 135.863 2.93848C136.038 2.90918 136.22 2.83301 136.408 2.70996C136.601 2.58691 136.759 2.4375 136.882 2.26172C137.011 2.08008 137.075 1.89258 137.075 1.69922C137.075 1.25391 136.876 0.949219 136.478 0.785156C136.085 0.615234 135.599 0.530273 135.019 0.530273C134.433 0.530273 133.876 0.676758 133.349 0.969727C132.822 1.2627 132.382 1.69336 132.031 2.26172C131.679 2.83008 131.468 3.50977 131.398 4.30078L130.185 4.50293L130.097 5.47852H131.407V10.4795L130.062 10.9805L129.956 12H135.529L135.599 10.875ZM140.425 12.2373C141.187 12.2373 141.869 12.0586 142.473 11.7012C143.076 11.3379 143.548 10.8281 143.888 10.1719C144.228 9.51562 144.398 8.75977 144.398 7.9043C144.398 7.04883 144.251 6.31934 143.958 5.71582C143.665 5.10645 143.235 4.64355 142.666 4.32715C142.104 4.01074 141.424 3.85254 140.627 3.85254C139.953 3.85254 139.303 4.02246 138.676 4.3623C138.049 4.70215 137.536 5.19434 137.138 5.83887C136.739 6.47754 136.54 7.22461 136.54 8.08008C136.54 8.85938 136.675 9.5625 136.944 10.1895C137.214 10.8105 137.639 11.3086 138.219 11.6836C138.805 12.0527 139.54 12.2373 140.425 12.2373ZM140.276 5.23242C140.955 5.23242 141.433 5.58398 141.708 6.28711C141.989 6.99023 142.13 7.8457 142.13 8.85352C142.13 9.50977 142.013 10.0254 141.778 10.4004C141.544 10.7695 141.19 10.9541 140.715 10.9541C140.047 10.9541 139.558 10.6436 139.247 10.0225C138.943 9.39551 138.79 8.55469 138.79 7.5C138.79 6.80273 138.907 6.25195 139.142 5.84766C139.382 5.4375 139.76 5.23242 140.276 5.23242ZM150.296 12L150.41 10.8838L149.021 10.4795V0.908203L148.661 0.556641L145.682 0.767578L145.479 1.85742L146.903 2.54297V10.4795L145.567 10.875L145.453 12H150.296ZM156.344 12L156.458 10.8838L155.069 10.4795V0.908203L154.709 0.556641L151.729 0.767578L151.527 1.85742L152.951 2.54297V10.4795L151.615 10.875L151.501 12H156.344ZM161.433 12.2373C162.195 12.2373 162.878 12.0586 163.481 11.7012C164.085 11.3379 164.556 10.8281 164.896 10.1719C165.236 9.51562 165.406 8.75977 165.406 7.9043C165.406 7.04883 165.259 6.31934 164.966 5.71582C164.674 5.10645 164.243 4.64355 163.674 4.32715C163.112 4.01074 162.432 3.85254 161.635 3.85254C160.962 3.85254 160.311 4.02246 159.684 4.3623C159.057 4.70215 158.545 5.19434 158.146 5.83887C157.748 6.47754 157.549 7.22461 157.549 8.08008C157.549 8.85938 157.683 9.5625 157.953 10.1895C158.222 10.8105 158.647 11.3086 159.227 11.6836C159.813 12.0527 160.549 12.2373 161.433 12.2373ZM161.284 5.23242C161.964 5.23242 162.441 5.58398 162.716 6.28711C162.998 6.99023 163.138 7.8457 163.138 8.85352C163.138 9.50977 163.021 10.0254 162.787 10.4004C162.552 10.7695 162.198 10.9541 161.723 10.9541C161.055 10.9541 160.566 10.6436 160.256 10.0225C159.951 9.39551 159.799 8.55469 159.799 7.5C159.799 6.80273 159.916 6.25195 160.15 5.84766C160.39 5.4375 160.768 5.23242 161.284 5.23242ZM167.393 5.63672L169.23 12.2988L170.838 12.0879L171.946 7.60547L173.168 12.2988L174.793 12.0879L176.499 5.61914L177.448 5.10938L177.606 4.08984H174.161L174.02 5.12695L174.952 5.63672L174.249 8.87988L174.09 8.99414L172.983 4.49414L171.366 4.65234L170.346 8.94141L170.206 8.92383L169.423 5.61914L170.346 5.10938L170.487 4.08984H166.532L166.382 5.12695L167.393 5.63672ZM180.947 3C181.281 3 181.565 2.94434 181.799 2.83301C182.039 2.72168 182.221 2.57227 182.344 2.38477C182.467 2.19727 182.529 1.99219 182.529 1.76953C182.529 1.55273 182.464 1.35645 182.335 1.18066C182.206 0.999023 182.022 0.855469 181.782 0.75C181.541 0.644531 181.263 0.591797 180.947 0.591797C180.636 0.591797 180.364 0.644531 180.129 0.75C179.901 0.849609 179.722 0.987305 179.593 1.16309C179.47 1.33887 179.409 1.53516 179.409 1.75195C179.409 2.10938 179.537 2.4082 179.795 2.64844C180.059 2.88281 180.443 3 180.947 3ZM183.443 12L183.539 10.8838L182.124 10.4795V4.38867L181.773 4.03711L178.89 4.24805L178.697 5.34668L180.006 6.06738V10.4795L178.662 10.875L178.574 12H183.443ZM189.376 10.9277L188.181 10.4883V6.60352C188.579 6.20508 189.054 6.00586 189.605 6.00586C189.974 6.00586 190.264 6.13477 190.475 6.39258C190.686 6.64453 190.791 7.04004 190.791 7.5791V10.4883L190.185 10.9893L190.141 12H194.034L194.175 10.9277L192.892 10.4883V6.48047C192.892 5.64844 192.704 5.02148 192.329 4.59961C191.954 4.17773 191.427 3.9668 190.747 3.9668C190.261 3.9668 189.807 4.08984 189.385 4.33594C188.963 4.58203 188.556 4.92188 188.163 5.35547L188.049 5.3291L188.225 4.31836L187.988 4.06348L184.903 4.3623L184.736 5.43457L186.036 6.02344V10.4883L184.753 10.9893L184.63 12H189.183L189.376 10.9277ZM198.447 15.3926C199.291 15.3926 200.059 15.2402 200.75 14.9355C201.441 14.6309 201.986 14.2354 202.385 13.749C202.783 13.2627 202.982 12.7588 202.982 12.2373C202.982 11.5166 202.751 11.0098 202.288 10.7168C201.831 10.4238 201.16 10.2773 200.275 10.2773H199.08C198.617 10.2773 198.295 10.2305 198.113 10.1367C197.938 10.043 197.85 9.91113 197.85 9.74121C197.85 9.57129 197.961 9.36914 198.184 9.13477C198.465 9.1875 198.693 9.21387 198.869 9.21387C199.391 9.21387 199.889 9.10547 200.363 8.88867C200.838 8.66602 201.222 8.34961 201.515 7.93945C201.814 7.52344 201.963 7.04004 201.963 6.48926C201.963 6.35449 201.945 6.21094 201.91 6.05859C201.881 5.90039 201.846 5.76562 201.805 5.6543L201.822 5.56641L202.763 5.86523L202.982 5.84766L203.352 4.51172L203.132 4.25684C202.95 4.27441 202.646 4.30664 202.218 4.35352C201.796 4.39453 201.441 4.43262 201.154 4.46777C200.902 4.30371 200.607 4.17188 200.267 4.07227C199.933 3.9668 199.511 3.91406 199.001 3.91406C198.427 3.91406 197.899 4.04297 197.419 4.30078C196.939 4.55859 196.558 4.90137 196.276 5.3291C196.001 5.75098 195.863 6.19922 195.863 6.67383C195.863 7.01953 195.942 7.35059 196.101 7.66699C196.265 7.9834 196.461 8.25 196.69 8.4668C196.918 8.68359 197.123 8.82422 197.305 8.88867L197.314 8.99414C197.073 9.06445 196.83 9.18457 196.584 9.35449C196.338 9.51855 196.133 9.70605 195.969 9.91699C195.805 10.1221 195.723 10.3213 195.723 10.5146C195.723 10.8193 195.793 11.0742 195.934 11.2793C196.074 11.4844 196.282 11.6543 196.558 11.7891V11.8945C196.194 12.0176 195.869 12.2197 195.582 12.501C195.301 12.7822 195.16 13.0723 195.16 13.3711C195.16 13.875 195.324 14.2764 195.652 14.5752C195.986 14.8799 196.399 15.0908 196.892 15.208C197.39 15.3311 197.908 15.3926 198.447 15.3926ZM198.799 4.81055C199.08 4.81055 199.312 4.91895 199.493 5.13574C199.681 5.34668 199.816 5.59863 199.898 5.8916C199.985 6.17871 200.029 6.43066 200.029 6.64746C200.029 7.06348 199.991 7.3916 199.915 7.63184C199.845 7.86621 199.728 8.03613 199.564 8.1416C199.405 8.24121 199.191 8.29102 198.922 8.29102C198.828 8.29102 198.691 8.23242 198.509 8.11523C198.327 7.99219 198.163 7.7959 198.017 7.52637C197.87 7.25684 197.797 6.91406 197.797 6.49805C197.797 5.93555 197.885 5.51367 198.061 5.23242C198.236 4.95117 198.482 4.81055 198.799 4.81055ZM199.089 11.9736C199.534 11.9736 199.883 12 200.135 12.0527C200.393 12.1113 200.58 12.208 200.697 12.3428C200.815 12.4775 200.873 12.6621 200.873 12.8965C200.873 13.3301 200.709 13.6436 200.381 13.8369C200.059 14.0361 199.613 14.1357 199.045 14.1357C197.785 14.1357 197.155 13.6992 197.155 12.8262C197.155 12.6621 197.176 12.5244 197.217 12.4131C197.264 12.3076 197.314 12.2139 197.366 12.1318C197.425 12.0498 197.457 11.9971 197.463 11.9736H199.089ZM212.45 12.2725C213.018 12.2725 213.581 12.1758 214.137 11.9824C214.694 11.7891 215.151 11.5078 215.509 11.1387L215.333 10.1455C214.987 10.3271 214.65 10.4473 214.322 10.5059C214 10.5586 213.642 10.585 213.25 10.585C212.588 10.585 212.087 10.3828 211.747 9.97852C211.407 9.57422 211.219 9.05859 211.184 8.43164L215.148 8.34375C215.183 8.18555 215.219 7.93945 215.254 7.60547C215.295 7.27148 215.315 7.03418 215.315 6.89355C215.315 6.28418 215.21 5.75098 214.999 5.29395C214.794 4.83691 214.501 4.48535 214.12 4.23926C213.739 3.99316 213.297 3.87012 212.793 3.87012C212.16 3.87012 211.548 4.05469 210.956 4.42383C210.37 4.78711 209.889 5.2998 209.514 5.96191C209.145 6.62402 208.961 7.37988 208.961 8.22949C208.961 9.09082 209.116 9.82617 209.427 10.4355C209.737 11.0449 210.156 11.5049 210.683 11.8154C211.211 12.1201 211.8 12.2725 212.45 12.2725ZM212.301 5.33789C212.635 5.33789 212.881 5.46387 213.039 5.71582C213.197 5.96191 213.276 6.2959 213.276 6.71777C213.276 6.7998 213.27 6.90527 213.259 7.03418C213.253 7.16309 213.241 7.25391 213.223 7.30664L211.158 7.50879C211.17 7.06348 211.228 6.67676 211.334 6.34863C211.439 6.02051 211.577 5.77148 211.747 5.60156C211.917 5.42578 212.101 5.33789 212.301 5.33789ZM219.297 12.1758C219.69 12.1758 220.103 12.1055 220.537 11.9648C220.976 11.8242 221.339 11.5986 221.627 11.2881L221.644 10.1719C221.48 10.2832 221.263 10.3711 220.994 10.4355C220.724 10.5 220.469 10.5322 220.229 10.5322C219.93 10.5322 219.661 10.4268 219.421 10.2158C219.18 9.99902 218.99 9.68555 218.849 9.27539C218.709 8.86523 218.638 8.37598 218.638 7.80762C218.638 7.06934 218.776 6.49805 219.051 6.09375C219.327 5.68359 219.711 5.47852 220.203 5.47852C220.502 5.47852 220.792 5.58105 221.073 5.78613C221.36 5.99121 221.574 6.24023 221.714 6.5332V13.7051L220.379 14.1621L220.255 15.1992H225.019L225.142 14.1445L223.745 13.7051V4.00195L223.393 3.9668L222.136 4.30957C221.908 4.20996 221.656 4.125 221.38 4.05469C221.111 3.98438 220.853 3.94922 220.607 3.94922C219.898 3.94922 219.221 4.16602 218.577 4.59961C217.938 5.0332 217.422 5.60156 217.03 6.30469C216.643 7.00195 216.45 7.73145 216.45 8.49316C216.45 9.31934 216.573 10.0078 216.819 10.5586C217.065 11.1094 217.402 11.5166 217.83 11.7803C218.257 12.0439 218.747 12.1758 219.297 12.1758ZM227.182 9.65332C227.182 10.5732 227.352 11.2354 227.692 11.6396C228.038 12.0381 228.585 12.2373 229.335 12.2373C229.822 12.2373 230.279 12.1172 230.707 11.877C231.14 11.6367 231.498 11.291 231.779 10.8398L231.893 10.8574V10.9629C231.893 11.3789 232.028 11.6982 232.297 11.9209C232.567 12.1436 232.936 12.2549 233.405 12.2549C233.704 12.2549 233.991 12.2256 234.266 12.167C234.547 12.1143 234.843 12.0293 235.154 11.9121L235.294 10.8047L234.978 10.7168C234.691 10.6348 234.474 10.5527 234.328 10.4707C234.181 10.3828 234.073 10.2598 234.002 10.1016C233.932 9.9375 233.897 9.70898 233.897 9.41602V4.37109L233.572 4.02832L230.707 4.33594L230.513 5.6543L231.726 6.17285V9.64453C231.527 9.83203 231.328 9.97266 231.128 10.0664C230.929 10.1543 230.689 10.1982 230.408 10.1982C230.062 10.1982 229.801 10.0723 229.625 9.82031C229.456 9.56836 229.371 9.14355 229.371 8.5459V4.40625L229.019 4.06348L226.242 4.24805L226.031 5.4082L227.182 6.11133V9.65332ZM238.363 3C238.697 3 238.981 2.94434 239.215 2.83301C239.455 2.72168 239.637 2.57227 239.76 2.38477C239.883 2.19727 239.945 1.99219 239.945 1.76953C239.945 1.55273 239.88 1.35645 239.751 1.18066C239.622 0.999023 239.438 0.855469 239.198 0.75C238.957 0.644531 238.679 0.591797 238.363 0.591797C238.052 0.591797 237.78 0.644531 237.545 0.75C237.317 0.849609 237.138 0.987305 237.009 1.16309C236.886 1.33887 236.825 1.53516 236.825 1.75195C236.825 2.10938 236.953 2.4082 237.211 2.64844C237.475 2.88281 237.859 3 238.363 3ZM240.859 12L240.955 10.8838L239.54 10.4795V4.38867L239.189 4.03711L236.306 4.24805L236.113 5.34668L237.422 6.06738V10.4795L236.077 10.875L235.99 12H240.859ZM245.491 11.543V13.7578L247.249 14.2061L247.1 15.2607H241.941L242.046 14.2236L243.4 13.749V5.98828L242.064 5.43457L242.231 4.35352L245.333 4.07227L245.597 4.31836L245.439 5.25L245.527 5.27637C245.79 4.90137 246.124 4.58203 246.528 4.31836C246.939 4.04883 247.407 3.91406 247.935 3.91406C248.456 3.91406 248.928 4.05176 249.35 4.32715C249.777 4.59668 250.117 5.02148 250.369 5.60156C250.621 6.18164 250.747 6.91406 250.747 7.79883C250.747 8.70117 250.566 9.4834 250.202 10.1455C249.845 10.8018 249.35 11.3027 248.717 11.6484C248.09 11.9941 247.384 12.167 246.599 12.167C246.077 12.167 245.711 12.1289 245.5 12.0527L245.491 11.543ZM247.091 5.79492C246.587 5.79492 246.054 6.02344 245.491 6.48047V10.5322C245.708 10.6318 245.919 10.7051 246.124 10.752C246.329 10.793 246.569 10.8135 246.845 10.8135C247.366 10.8135 247.774 10.6113 248.067 10.207C248.365 9.79688 248.515 9.22852 248.515 8.50195C248.515 7.63477 248.395 6.9668 248.154 6.49805C247.92 6.0293 247.566 5.79492 247.091 5.79492ZM255.204 12.2725C255.772 12.2725 256.335 12.1758 256.892 11.9824C257.448 11.7891 257.905 11.5078 258.263 11.1387L258.087 10.1455C257.741 10.3271 257.404 10.4473 257.076 10.5059C256.754 10.5586 256.396 10.585 256.004 10.585C255.342 10.585 254.841 10.3828 254.501 9.97852C254.161 9.57422 253.974 9.05859 253.938 8.43164L257.902 8.34375C257.938 8.18555 257.973 7.93945 258.008 7.60547C258.049 7.27148 258.069 7.03418 258.069 6.89355C258.069 6.28418 257.964 5.75098 257.753 5.29395C257.548 4.83691 257.255 4.48535 256.874 4.23926C256.493 3.99316 256.051 3.87012 255.547 3.87012C254.914 3.87012 254.302 4.05469 253.71 4.42383C253.124 4.78711 252.644 5.2998 252.269 5.96191C251.899 6.62402 251.715 7.37988 251.715 8.22949C251.715 9.09082 251.87 9.82617 252.181 10.4355C252.491 11.0449 252.91 11.5049 253.438 11.8154C253.965 12.1201 254.554 12.2725 255.204 12.2725ZM255.055 5.33789C255.389 5.33789 255.635 5.46387 255.793 5.71582C255.951 5.96191 256.03 6.2959 256.03 6.71777C256.03 6.7998 256.024 6.90527 256.013 7.03418C256.007 7.16309 255.995 7.25391 255.978 7.30664L253.912 7.50879C253.924 7.06348 253.982 6.67676 254.088 6.34863C254.193 6.02051 254.331 5.77148 254.501 5.60156C254.671 5.42578 254.855 5.33789 255.055 5.33789ZM263.932 10.9277L262.755 10.4883V6.62109C262.954 6.42188 263.177 6.27246 263.423 6.17285C263.669 6.06738 263.927 6.01465 264.196 6.01465C264.554 6.01465 264.835 6.14648 265.04 6.41016C265.251 6.66797 265.356 7.0459 265.356 7.54395V10.4883L264.785 10.9805L264.741 12H268.52L268.67 10.9277L267.448 10.4883V6.65625C267.665 6.45117 267.885 6.29297 268.107 6.18164C268.33 6.07031 268.579 6.01465 268.854 6.01465C269.229 6.01465 269.516 6.14648 269.716 6.41016C269.915 6.67383 270.014 7.05176 270.014 7.54395V10.4883L269.461 10.9805L269.434 12H273.214L273.372 10.9277L272.115 10.4883V6.50684C272.115 5.6748 271.933 5.05371 271.57 4.64355C271.213 4.22754 270.688 4.01953 269.997 4.01953C269.106 4.01953 268.239 4.5 267.395 5.46094L267.272 5.44336C267.138 4.93359 266.897 4.56445 266.552 4.33594C266.212 4.10156 265.802 3.98438 265.321 3.98438C264.407 3.98438 263.546 4.44141 262.737 5.35547L262.632 5.33789L262.807 4.33594L262.561 4.07227L259.45 4.37988L259.292 5.44336L260.619 6.02344V10.4883L259.336 10.9805L259.222 12H263.757L263.932 10.9277ZM277.899 12.2725C278.467 12.2725 279.03 12.1758 279.587 11.9824C280.143 11.7891 280.6 11.5078 280.958 11.1387L280.782 10.1455C280.436 10.3271 280.099 10.4473 279.771 10.5059C279.449 10.5586 279.091 10.585 278.699 10.585C278.037 10.585 277.536 10.3828 277.196 9.97852C276.856 9.57422 276.669 9.05859 276.633 8.43164L280.597 8.34375C280.633 8.18555 280.668 7.93945 280.703 7.60547C280.744 7.27148 280.764 7.03418 280.764 6.89355C280.764 6.28418 280.659 5.75098 280.448 5.29395C280.243 4.83691 279.95 4.48535 279.569 4.23926C279.188 3.99316 278.746 3.87012 278.242 3.87012C277.609 3.87012 276.997 4.05469 276.405 4.42383C275.819 4.78711 275.339 5.2998 274.964 5.96191C274.594 6.62402 274.41 7.37988 274.41 8.22949C274.41 9.09082 274.565 9.82617 274.876 10.4355C275.186 11.0449 275.605 11.5049 276.133 11.8154C276.66 12.1201 277.249 12.2725 277.899 12.2725ZM277.75 5.33789C278.084 5.33789 278.33 5.46387 278.488 5.71582C278.646 5.96191 278.725 6.2959 278.725 6.71777C278.725 6.7998 278.719 6.90527 278.708 7.03418C278.702 7.16309 278.69 7.25391 278.673 7.30664L276.607 7.50879C276.619 7.06348 276.677 6.67676 276.783 6.34863C276.888 6.02051 277.026 5.77148 277.196 5.60156C277.366 5.42578 277.55 5.33789 277.75 5.33789ZM286.645 10.9277L285.45 10.4883V6.60352C285.848 6.20508 286.323 6.00586 286.874 6.00586C287.243 6.00586 287.533 6.13477 287.744 6.39258C287.955 6.64453 288.06 7.04004 288.06 7.5791V10.4883L287.454 10.9893L287.41 12H291.303L291.444 10.9277L290.161 10.4883V6.48047C290.161 5.64844 289.973 5.02148 289.598 4.59961C289.223 4.17773 288.696 3.9668 288.016 3.9668C287.53 3.9668 287.076 4.08984 286.654 4.33594C286.232 4.58203 285.825 4.92188 285.432 5.35547L285.318 5.3291L285.494 4.31836L285.256 4.06348L282.171 4.3623L282.004 5.43457L283.305 6.02344V10.4883L282.022 10.9893L281.899 12H286.452L286.645 10.9277ZM293.449 9.55664C293.443 10.2188 293.516 10.7432 293.668 11.1299C293.827 11.5166 294.067 11.792 294.389 11.9561C294.711 12.1201 295.136 12.2021 295.663 12.2021C296.244 12.2021 296.756 12.0791 297.202 11.833C297.653 11.5869 298.01 11.2793 298.274 10.9102L298.054 10.0928C298.025 10.1104 297.954 10.1484 297.843 10.207C297.738 10.2656 297.6 10.3242 297.43 10.3828C297.266 10.4355 297.099 10.4619 296.929 10.4619C296.454 10.4619 296.118 10.3535 295.918 10.1367C295.725 9.91992 295.628 9.55664 295.628 9.04688L295.646 5.67188H298.028L298.116 4.42383H295.672V2.49023H294.723C294.413 2.93555 294.061 3.35742 293.668 3.75586C293.282 4.14844 292.886 4.48242 292.482 4.75781V5.64551H293.475L293.449 9.55664ZM82.8671 35.875L80.705 35.418V30.4785H82.8847L82.9902 29.3535H80.705L80.7226 28.4922C80.7285 27.7949 80.8193 27.3174 80.9951 27.0596C81.1709 26.7959 81.4199 26.6641 81.7421 26.6641C82 26.6641 82.2343 26.7783 82.4453 27.0068C82.6562 27.2354 82.8847 27.5459 83.1308 27.9385C83.3066 27.9092 83.4882 27.833 83.6757 27.71C83.8691 27.5869 84.0273 27.4375 84.1503 27.2617C84.2793 27.0801 84.3437 26.8926 84.3437 26.6992C84.3437 26.2539 84.1445 25.9492 83.746 25.7852C83.3535 25.6152 82.8671 25.5303 82.2871 25.5303C81.7011 25.5303 81.1445 25.6768 80.6171 25.9697C80.0898 26.2627 79.6503 26.6934 79.2988 27.2617C78.9472 27.8301 78.7363 28.5098 78.666 29.3008L77.4531 29.5029L77.3652 30.4785H78.6748V35.4795L77.33 35.9805L77.2246 37H82.7968L82.8671 35.875ZM87.6932 37.2373C88.4549 37.2373 89.1375 37.0586 89.741 36.7012C90.3445 36.3379 90.8162 35.8281 91.1561 35.1719C91.4959 34.5156 91.6658 33.7598 91.6658 32.9043C91.6658 32.0488 91.5193 31.3193 91.2264 30.7158C90.9334 30.1064 90.5027 29.6436 89.9344 29.3271C89.3719 29.0107 88.6922 28.8525 87.8953 28.8525C87.2215 28.8525 86.5711 29.0225 85.9441 29.3623C85.3172 29.7021 84.8045 30.1943 84.4061 30.8389C84.0076 31.4775 83.8084 32.2246 83.8084 33.0801C83.8084 33.8594 83.9432 34.5625 84.2127 35.1895C84.4822 35.8105 84.907 36.3086 85.4871 36.6836C86.073 37.0527 86.8084 37.2373 87.6932 37.2373ZM87.5437 30.2324C88.2234 30.2324 88.701 30.584 88.9764 31.2871C89.2576 31.9902 89.3982 32.8457 89.3982 33.8535C89.3982 34.5098 89.2811 35.0254 89.0467 35.4004C88.8123 35.7695 88.4578 35.9541 87.9832 35.9541C87.3152 35.9541 86.826 35.6436 86.5154 35.0225C86.2107 34.3955 86.0584 33.5547 86.0584 32.5C86.0584 31.8027 86.1756 31.252 86.41 30.8477C86.6502 30.4375 87.0281 30.2324 87.5437 30.2324ZM98.3288 35.7871L96.2545 35.3652V32.7637C96.3541 32.3184 96.5211 31.9551 96.7555 31.6738C96.9958 31.3926 97.277 31.252 97.5993 31.252C97.9333 31.252 98.3024 31.3809 98.7067 31.6387C98.9586 31.4277 99.1549 31.2021 99.2956 30.9619C99.4362 30.7158 99.5065 30.4375 99.5065 30.127C99.5065 29.7871 99.3922 29.5029 99.1637 29.2744C98.9411 29.0459 98.6393 28.9316 98.2584 28.9316C97.819 28.9316 97.4088 29.1045 97.028 29.4502C96.653 29.79 96.3571 30.3086 96.1403 31.0059L95.9733 30.9619L96.1403 29.3359L95.8678 29.0547L93.0026 29.3447L92.8268 30.417L94.1627 30.9707V35.4883L92.8444 35.9629L92.7038 36.9912H98.2233L98.3288 35.7871ZM106.364 40.3486C106.909 40.3486 107.377 40.252 107.77 40.0586C108.162 39.8652 108.52 39.5488 108.842 39.1094C109.17 38.6699 109.498 38.0664 109.827 37.2988L112.701 30.5752L113.571 30.127L113.676 29.1074H110.327L110.143 30.127L111.233 30.6016L109.607 34.6094L108.086 30.54L109.035 30.127L109.167 29.1074H104.887L104.729 30.1445L105.836 30.5752L108.455 37.0791L108.315 37.3955C108.151 37.7529 107.952 37.9961 107.717 38.125C107.489 38.2539 107.231 38.3184 106.944 38.3184C106.639 38.3184 106.343 38.2656 106.056 38.1602C105.769 38.0605 105.514 37.9111 105.291 37.7119C105.051 37.9404 104.887 38.1631 104.799 38.3799C104.717 38.6025 104.676 38.8457 104.676 39.1094C104.676 39.3262 104.755 39.5283 104.913 39.7158C105.072 39.9092 105.28 40.0615 105.537 40.1729C105.795 40.29 106.071 40.3486 106.364 40.3486ZM118.564 37.2373C119.325 37.2373 120.008 37.0586 120.612 36.7012C121.215 36.3379 121.687 35.8281 122.027 35.1719C122.366 34.5156 122.536 33.7598 122.536 32.9043C122.536 32.0488 122.39 31.3193 122.097 30.7158C121.804 30.1064 121.373 29.6436 120.805 29.3271C120.242 29.0107 119.563 28.8525 118.766 28.8525C118.092 28.8525 117.442 29.0225 116.815 29.3623C116.188 29.7021 115.675 30.1943 115.277 30.8389C114.878 31.4775 114.679 32.2246 114.679 33.0801C114.679 33.8594 114.814 34.5625 115.083 35.1895C115.353 35.8105 115.778 36.3086 116.358 36.6836C116.944 37.0527 117.679 37.2373 118.564 37.2373ZM118.414 30.2324C119.094 30.2324 119.571 30.584 119.847 31.2871C120.128 31.9902 120.269 32.8457 120.269 33.8535C120.269 34.5098 120.152 35.0254 119.917 35.4004C119.683 35.7695 119.328 35.9541 118.854 35.9541C118.186 35.9541 117.696 35.6436 117.386 35.0225C117.081 34.3955 116.929 33.5547 116.929 32.5C116.929 31.8027 117.046 31.252 117.28 30.8477C117.521 30.4375 117.899 30.2324 118.414 30.2324ZM124.664 34.6533C124.664 35.5732 124.834 36.2354 125.174 36.6396C125.52 37.0381 126.067 37.2373 126.817 37.2373C127.304 37.2373 127.761 37.1172 128.189 36.877C128.622 36.6367 128.98 36.291 129.261 35.8398L129.375 35.8574V35.9629C129.375 36.3789 129.51 36.6982 129.779 36.9209C130.049 37.1436 130.418 37.2549 130.887 37.2549C131.186 37.2549 131.473 37.2256 131.748 37.167C132.029 37.1143 132.325 37.0293 132.636 36.9121L132.776 35.8047L132.46 35.7168C132.173 35.6348 131.956 35.5527 131.81 35.4707C131.663 35.3828 131.555 35.2598 131.484 35.1016C131.414 34.9375 131.379 34.709 131.379 34.416V29.3711L131.054 29.0283L128.189 29.3359L127.995 30.6543L129.208 31.1729V34.6445C129.009 34.832 128.81 34.9727 128.61 35.0664C128.411 35.1543 128.171 35.1982 127.89 35.1982C127.544 35.1982 127.283 35.0723 127.107 34.8203C126.938 34.5684 126.853 34.1436 126.853 33.5459V29.4062L126.501 29.0635L123.724 29.248L123.513 30.4082L124.664 31.1113V34.6533ZM139.097 35.7871L137.022 35.3652V32.7637C137.122 32.3184 137.289 31.9551 137.523 31.6738C137.764 31.3926 138.045 31.252 138.367 31.252C138.701 31.252 139.07 31.3809 139.474 31.6387C139.726 31.4277 139.923 31.2021 140.063 30.9619C140.204 30.7158 140.274 30.4375 140.274 30.127C140.274 29.7871 140.16 29.5029 139.932 29.2744C139.709 29.0459 139.407 28.9316 139.026 28.9316C138.587 28.9316 138.177 29.1045 137.796 29.4502C137.421 29.79 137.125 30.3086 136.908 31.0059L136.741 30.9619L136.908 29.3359L136.636 29.0547L133.77 29.3447L133.595 30.417L134.931 30.9707V35.4883L133.612 35.9629L133.472 36.9912H138.991L139.097 35.7871ZM148.353 37.3076C148.945 37.3076 149.487 37.2051 149.979 37C150.477 36.8008 150.873 36.5137 151.166 36.1387C151.459 35.7637 151.605 35.3301 151.605 34.8379C151.605 34.3867 151.488 33.9971 151.253 33.6689C151.019 33.335 150.738 33.0596 150.41 32.8428C150.082 32.6201 149.657 32.374 149.135 32.1045C148.778 31.9229 148.497 31.7705 148.292 31.6475C148.087 31.5186 147.917 31.3779 147.782 31.2256C147.647 31.0732 147.58 30.9062 147.58 30.7246C147.58 30.4902 147.656 30.2939 147.808 30.1357C147.966 29.9775 148.177 29.8984 148.441 29.8984C148.728 29.8984 148.992 29.9922 149.232 30.1797C149.472 30.3672 149.651 30.6953 149.768 31.1641L149.944 31.7266C150.36 31.6914 150.706 31.5508 150.981 31.3047C151.256 31.0527 151.394 30.7422 151.394 30.373C151.394 29.8926 151.16 29.5234 150.691 29.2656C150.228 29.0078 149.619 28.8789 148.863 28.8789C148.171 28.8789 147.594 29.0166 147.131 29.292C146.674 29.5674 146.337 29.9072 146.121 30.3115C145.91 30.71 145.804 31.0967 145.804 31.4717C145.804 31.9287 145.921 32.3271 146.156 32.667C146.396 33.001 146.677 33.2793 147 33.502C147.322 33.7188 147.741 33.9619 148.256 34.2314C148.59 34.4014 148.848 34.542 149.03 34.6533C149.217 34.7646 149.37 34.8877 149.487 35.0225C149.61 35.1572 149.671 35.3008 149.671 35.4531C149.671 35.7109 149.581 35.8955 149.399 36.0068C149.217 36.1182 148.954 36.1738 148.608 36.1738C148.262 36.1738 147.946 36.0215 147.659 35.7168C147.372 35.4062 147.143 34.9551 146.973 34.3633C146.528 34.3984 146.179 34.5303 145.927 34.7588C145.675 34.9873 145.549 35.2832 145.549 35.6465C145.549 35.957 145.675 36.2383 145.927 36.4902C146.185 36.7422 146.528 36.9414 146.956 37.0879C147.389 37.2344 147.855 37.3076 148.353 37.3076ZM156.044 37.2725C156.613 37.2725 157.175 37.1758 157.732 36.9824C158.288 36.7891 158.746 36.5078 159.103 36.1387L158.927 35.1455C158.581 35.3271 158.245 35.4473 157.916 35.5059C157.594 35.5586 157.237 35.585 156.844 35.585C156.182 35.585 155.681 35.3828 155.341 34.9785C155.001 34.5742 154.814 34.0586 154.779 33.4316L158.743 33.3438C158.778 33.1855 158.813 32.9395 158.848 32.6055C158.889 32.2715 158.91 32.0342 158.91 31.8936C158.91 31.2842 158.804 30.751 158.593 30.2939C158.388 29.8369 158.095 29.4854 157.714 29.2393C157.333 28.9932 156.891 28.8701 156.387 28.8701C155.754 28.8701 155.142 29.0547 154.55 29.4238C153.964 29.7871 153.484 30.2998 153.109 30.9619C152.74 31.624 152.555 32.3799 152.555 33.2295C152.555 34.0908 152.71 34.8262 153.021 35.4355C153.331 36.0449 153.75 36.5049 154.278 36.8154C154.805 37.1201 155.394 37.2725 156.044 37.2725ZM155.895 30.3379C156.229 30.3379 156.475 30.4639 156.633 30.7158C156.791 30.9619 156.871 31.2959 156.871 31.7178C156.871 31.7998 156.865 31.9053 156.853 32.0342C156.847 32.1631 156.835 32.2539 156.818 32.3066L154.752 32.5088C154.764 32.0635 154.823 31.6768 154.928 31.3486C155.034 31.0205 155.171 30.7715 155.341 30.6016C155.511 30.4258 155.696 30.3379 155.895 30.3379ZM164.896 37L165.01 35.8838L163.621 35.4795V25.9082L163.261 25.5566L160.282 25.7676L160.079 26.8574L161.503 27.543V35.4795L160.167 35.875L160.053 37H164.896ZM169.511 37.2725C170.079 37.2725 170.642 37.1758 171.198 36.9824C171.755 36.7891 172.212 36.5078 172.569 36.1387L172.394 35.1455C172.048 35.3271 171.711 35.4473 171.383 35.5059C171.061 35.5586 170.703 35.585 170.311 35.585C169.649 35.585 169.148 35.3828 168.808 34.9785C168.468 34.5742 168.28 34.0586 168.245 33.4316L172.209 33.3438C172.244 33.1855 172.279 32.9395 172.315 32.6055C172.356 32.2715 172.376 32.0342 172.376 31.8936C172.376 31.2842 172.271 30.751 172.06 30.2939C171.855 29.8369 171.562 29.4854 171.181 29.2393C170.8 28.9932 170.358 28.8701 169.854 28.8701C169.221 28.8701 168.609 29.0547 168.017 29.4238C167.431 29.7871 166.95 30.2998 166.575 30.9619C166.206 31.624 166.022 32.3799 166.022 33.2295C166.022 34.0908 166.177 34.8262 166.487 35.4355C166.798 36.0449 167.217 36.5049 167.744 36.8154C168.272 37.1201 168.86 37.2725 169.511 37.2725ZM169.361 30.3379C169.695 30.3379 169.942 30.4639 170.1 30.7158C170.258 30.9619 170.337 31.2959 170.337 31.7178C170.337 31.7998 170.331 31.9053 170.319 32.0342C170.314 32.1631 170.302 32.2539 170.284 32.3066L168.219 32.5088C168.231 32.0635 168.289 31.6768 168.395 31.3486C168.5 31.0205 168.638 30.7715 168.808 30.6016C168.978 30.4258 169.162 30.3379 169.361 30.3379ZM177.299 37.2637C177.727 37.2637 178.143 37.1992 178.547 37.0703C178.951 36.9473 179.306 36.7773 179.61 36.5605C179.921 36.3438 180.152 36.1094 180.305 35.8574L180.023 35.1455C179.707 35.3389 179.405 35.4854 179.118 35.585C178.831 35.6787 178.477 35.7256 178.055 35.7256C177.551 35.7256 177.12 35.5645 176.763 35.2422C176.411 34.9141 176.145 34.5039 175.963 34.0117C175.787 33.5137 175.699 33.0127 175.699 32.5088C175.699 31.7002 175.822 31.0879 176.068 30.6719C176.314 30.2559 176.666 30.0479 177.123 30.0479C177.428 30.0479 177.688 30.1885 177.905 30.4697C178.122 30.7451 178.333 31.1758 178.538 31.7617C178.983 31.7207 179.335 31.5977 179.593 31.3926C179.856 31.1875 179.988 30.9004 179.988 30.5312C179.988 30.209 179.897 29.916 179.716 29.6523C179.534 29.3887 179.268 29.1807 178.916 29.0283C178.564 28.8701 178.148 28.791 177.668 28.791C176.982 28.791 176.311 28.9756 175.655 29.3447C175.005 29.708 174.472 30.2324 174.056 30.918C173.645 31.6035 173.44 32.4004 173.44 33.3086C173.44 34.0762 173.584 34.7588 173.871 35.3564C174.158 35.9482 174.589 36.4141 175.163 36.7539C175.743 37.0938 176.455 37.2637 177.299 37.2637ZM181.967 34.5566C181.961 35.2188 182.034 35.7432 182.186 36.1299C182.345 36.5166 182.585 36.792 182.907 36.9561C183.229 37.1201 183.654 37.2021 184.181 37.2021C184.762 37.2021 185.274 37.0791 185.72 36.833C186.171 36.5869 186.528 36.2793 186.792 35.9102L186.572 35.0928C186.543 35.1104 186.472 35.1484 186.361 35.207C186.256 35.2656 186.118 35.3242 185.948 35.3828C185.784 35.4355 185.617 35.4619 185.447 35.4619C184.972 35.4619 184.636 35.3535 184.436 35.1367C184.243 34.9199 184.146 34.5566 184.146 34.0469L184.164 30.6719H186.546L186.634 29.4238H184.19V27.4902H183.241C182.93 27.9355 182.579 28.3574 182.186 28.7559C181.8 29.1484 181.404 29.4824 181 29.7578V30.6455H181.993L181.967 34.5566ZM190.185 28C190.519 28 190.803 27.9443 191.038 27.833C191.278 27.7217 191.46 27.5723 191.583 27.3848C191.706 27.1973 191.767 26.9922 191.767 26.7695C191.767 26.5527 191.703 26.3564 191.574 26.1807C191.445 25.999 191.26 25.8555 191.02 25.75C190.78 25.6445 190.502 25.5918 190.185 25.5918C189.875 25.5918 189.602 25.6445 189.368 25.75C189.139 25.8496 188.961 25.9873 188.832 26.1631C188.709 26.3389 188.647 26.5352 188.647 26.752C188.647 27.1094 188.776 27.4082 189.034 27.6484C189.298 27.8828 189.681 28 190.185 28ZM192.681 37L192.778 35.8838L191.363 35.4795V29.3887L191.011 29.0371L188.129 29.248L187.935 30.3467L189.245 31.0674V35.4795L187.9 35.875L187.812 37H192.681ZM197.762 37.2373C198.524 37.2373 199.207 37.0586 199.81 36.7012C200.414 36.3379 200.885 35.8281 201.225 35.1719C201.565 34.5156 201.735 33.7598 201.735 32.9043C201.735 32.0488 201.588 31.3193 201.295 30.7158C201.002 30.1064 200.572 29.6436 200.003 29.3271C199.441 29.0107 198.761 28.8525 197.964 28.8525C197.291 28.8525 196.64 29.0225 196.013 29.3623C195.386 29.7021 194.874 30.1943 194.475 30.8389C194.077 31.4775 193.877 32.2246 193.877 33.0801C193.877 33.8594 194.012 34.5625 194.282 35.1895C194.551 35.8105 194.976 36.3086 195.556 36.6836C196.142 37.0527 196.877 37.2373 197.762 37.2373ZM197.613 30.2324C198.292 30.2324 198.77 30.584 199.045 31.2871C199.327 31.9902 199.467 32.8457 199.467 33.8535C199.467 34.5098 199.35 35.0254 199.116 35.4004C198.881 35.7695 198.527 35.9541 198.052 35.9541C197.384 35.9541 196.895 35.6436 196.584 35.0225C196.28 34.3955 196.127 33.5547 196.127 32.5C196.127 31.8027 196.245 31.252 196.479 30.8477C196.719 30.4375 197.097 30.2324 197.613 30.2324ZM207.528 35.9277L206.332 35.4883V31.6035C206.731 31.2051 207.205 31.0059 207.756 31.0059C208.125 31.0059 208.415 31.1348 208.626 31.3926C208.837 31.6445 208.943 32.04 208.943 32.5791V35.4883L208.336 35.9893L208.292 37H212.186L212.327 35.9277L211.043 35.4883V31.4805C211.043 30.6484 210.856 30.0215 210.481 29.5996C210.106 29.1777 209.578 28.9668 208.899 28.9668C208.412 28.9668 207.958 29.0898 207.536 29.3359C207.115 29.582 206.707 29.9219 206.315 30.3555L206.201 30.3291L206.376 29.3184L206.139 29.0635L203.054 29.3623L202.887 30.4346L204.188 31.0234V35.4883L202.905 35.9893L202.782 37H207.334L207.528 35.9277ZM216.265 37.3076C216.857 37.3076 217.399 37.2051 217.891 37C218.389 36.8008 218.784 36.5137 219.077 36.1387C219.37 35.7637 219.517 35.3301 219.517 34.8379C219.517 34.3867 219.4 33.9971 219.165 33.6689C218.931 33.335 218.65 33.0596 218.321 32.8428C217.993 32.6201 217.569 32.374 217.047 32.1045C216.69 31.9229 216.408 31.7705 216.203 31.6475C215.998 31.5186 215.828 31.3779 215.694 31.2256C215.559 31.0732 215.491 30.9062 215.491 30.7246C215.491 30.4902 215.568 30.2939 215.72 30.1357C215.878 29.9775 216.089 29.8984 216.353 29.8984C216.64 29.8984 216.904 29.9922 217.144 30.1797C217.384 30.3672 217.563 30.6953 217.68 31.1641L217.856 31.7266C218.272 31.6914 218.617 31.5508 218.893 31.3047C219.168 31.0527 219.306 30.7422 219.306 30.373C219.306 29.8926 219.071 29.5234 218.603 29.2656C218.14 29.0078 217.53 28.8789 216.775 28.8789C216.083 28.8789 215.506 29.0166 215.043 29.292C214.586 29.5674 214.249 29.9072 214.032 30.3115C213.821 30.71 213.716 31.0967 213.716 31.4717C213.716 31.9287 213.833 32.3271 214.068 32.667C214.308 33.001 214.589 33.2793 214.911 33.502C215.234 33.7188 215.653 33.9619 216.168 34.2314C216.502 34.4014 216.76 34.542 216.942 34.6533C217.129 34.7646 217.281 34.8877 217.399 35.0225C217.522 35.1572 217.583 35.3008 217.583 35.4531C217.583 35.7109 217.492 35.8955 217.311 36.0068C217.129 36.1182 216.865 36.1738 216.52 36.1738C216.174 36.1738 215.858 36.0215 215.571 35.7168C215.283 35.4062 215.055 34.9551 214.885 34.3633C214.44 34.3984 214.091 34.5303 213.839 34.7588C213.587 34.9873 213.461 35.2832 213.461 35.6465C213.461 35.957 213.587 36.2383 213.839 36.4902C214.097 36.7422 214.44 36.9414 214.867 37.0879C215.301 37.2344 215.767 37.3076 216.265 37.3076ZM221.425 28.4043C221.577 28.2402 221.823 28.0996 222.163 27.9824C222.509 27.8652 222.849 27.8066 223.183 27.8066C223.353 27.8066 223.525 27.8535 223.701 27.9473C223.883 28.041 224.032 28.1699 224.149 28.334C224.267 28.4922 224.325 28.668 224.325 28.8613C224.325 29.0898 224.267 29.2832 224.149 29.4414C224.032 29.5938 223.886 29.7197 223.71 29.8193C223.54 29.9131 223.306 30.0215 223.007 30.1445C222.685 30.2793 222.427 30.4023 222.233 30.5137C222.04 30.6191 221.876 30.7656 221.741 30.9531C221.612 31.1348 221.548 31.3633 221.548 31.6387C221.548 31.9258 221.618 32.2715 221.759 32.6758C221.905 33.0801 222.084 33.4375 222.295 33.748L223.332 33.5371C223.256 33.2852 223.218 33.0508 223.218 32.834C223.218 32.6582 223.262 32.5059 223.35 32.377C223.438 32.248 223.546 32.1426 223.675 32.0605C223.81 31.9727 223.994 31.8701 224.229 31.7529C224.551 31.5889 224.812 31.4336 225.011 31.2871C225.216 31.1406 225.389 30.9385 225.529 30.6807C225.676 30.417 225.749 30.083 225.749 29.6787C225.749 29.0107 225.579 28.3662 225.239 27.7451C224.899 27.124 224.466 26.623 223.939 26.2422C223.411 25.8613 222.881 25.6709 222.348 25.6709C221.686 25.6709 221.208 25.7998 220.915 26.0576C220.622 26.3096 220.476 26.6113 220.476 26.9629C220.476 27.1738 220.523 27.3848 220.616 27.5957C220.716 27.8008 220.839 27.9766 220.985 28.123C221.132 28.2695 221.278 28.3633 221.425 28.4043ZM222.796 37.2725C223.294 37.2725 223.669 37.1582 223.921 36.9297C224.173 36.6953 224.299 36.3965 224.299 36.0332C224.299 35.8281 224.243 35.6377 224.132 35.4619C224.026 35.2803 223.859 35.1338 223.631 35.0225C223.408 34.9053 223.13 34.8467 222.796 34.8467C222.48 34.8467 222.21 34.9053 221.987 35.0225C221.771 35.1338 221.606 35.2803 221.495 35.4619C221.39 35.6377 221.337 35.8281 221.337 36.0332C221.337 36.3848 221.454 36.6807 221.689 36.9209C221.929 37.1553 222.298 37.2725 222.796 37.2725Z" fill="#232323"/>
</svg>
