<svg width="193" height="41" viewBox="0 0 193 41" fill="none" xmlns="http://www.w3.org/2000/svg">
<path d="M1.96371 2.56934V10.5146L0.487144 11.0684L0.399254 12H5.92757L6.0682 10.998L4.4598 10.5762V7.24512H9.17953V10.5146L7.72054 11.0684L7.61507 12H13.1698L13.2752 10.998L11.6932 10.5762V2.52539L13.1698 2.05957L13.3016 1.06641H7.70296L7.57992 2.05957L9.17953 2.56934V5.68945H4.4598V2.52539L5.92757 2.05957L6.05941 1.06641H0.504723L0.346519 2.05957L1.96371 2.56934ZM17.8464 12.2725C18.4147 12.2725 18.9772 12.1758 19.5339 11.9824C20.0905 11.7891 20.5475 11.5078 20.905 11.1387L20.7292 10.1455C20.3835 10.3271 20.0466 10.4473 19.7184 10.5059C19.3962 10.5586 19.0387 10.585 18.6462 10.585C17.9841 10.585 17.4831 10.3828 17.1432 9.97852C16.8034 9.57422 16.6159 9.05859 16.5807 8.43164L20.5446 8.34375C20.5798 8.18555 20.6149 7.93945 20.6501 7.60547C20.6911 7.27148 20.7116 7.03418 20.7116 6.89355C20.7116 6.28418 20.6061 5.75098 20.3952 5.29395C20.1901 4.83691 19.8971 4.48535 19.5163 4.23926C19.1354 3.99316 18.693 3.87012 18.1891 3.87012C17.5563 3.87012 16.944 4.05469 16.3522 4.42383C15.7663 4.78711 15.2858 5.2998 14.9108 5.96191C14.5417 6.62402 14.3571 7.37988 14.3571 8.22949C14.3571 9.09082 14.5124 9.82617 14.8229 10.4355C15.1335 11.0449 15.5524 11.5049 16.0798 11.8154C16.6071 12.1201 17.196 12.2725 17.8464 12.2725ZM17.697 5.33789C18.0309 5.33789 18.277 5.46387 18.4352 5.71582C18.5934 5.96191 18.6725 6.2959 18.6725 6.71777C18.6725 6.7998 18.6667 6.90527 18.655 7.03418C18.6491 7.16309 18.6374 7.25391 18.6198 7.30664L16.5544 7.50879C16.5661 7.06348 16.6247 6.67676 16.7302 6.34863C16.8356 6.02051 16.9733 5.77148 17.1432 5.60156C17.3132 5.42578 17.4977 5.33789 17.697 5.33789ZM27.4624 10.7871L25.3882 10.3652V7.76367C25.4878 7.31836 25.6548 6.95508 25.8892 6.67383C26.1294 6.39258 26.4107 6.25195 26.7329 6.25195C27.0669 6.25195 27.4361 6.38086 27.8404 6.63867C28.0923 6.42773 28.2886 6.20215 28.4292 5.96191C28.5699 5.71582 28.6402 5.4375 28.6402 5.12695C28.6402 4.78711 28.5259 4.50293 28.2974 4.27441C28.0747 4.0459 27.773 3.93164 27.3921 3.93164C26.9527 3.93164 26.5425 4.10449 26.1617 4.4502C25.7867 4.79004 25.4908 5.30859 25.274 6.00586L25.107 5.96191L25.274 4.33594L25.0015 4.05469L22.1363 4.34473L21.9605 5.41699L23.2964 5.9707V10.4883L21.9781 10.9629L21.8374 11.9912H27.357L27.4624 10.7871ZM32.6312 12.2725C33.1996 12.2725 33.7621 12.1758 34.3187 11.9824C34.8754 11.7891 35.3324 11.5078 35.6898 11.1387L35.514 10.1455C35.1683 10.3271 34.8314 10.4473 34.5033 10.5059C34.181 10.5586 33.8236 10.585 33.431 10.585C32.7689 10.585 32.2679 10.3828 31.9281 9.97852C31.5883 9.57422 31.4008 9.05859 31.3656 8.43164L35.3295 8.34375C35.3646 8.18555 35.3998 7.93945 35.4349 7.60547C35.476 7.27148 35.4965 7.03418 35.4965 6.89355C35.4965 6.28418 35.391 5.75098 35.1801 5.29395C34.975 4.83691 34.682 4.48535 34.3011 4.23926C33.9203 3.99316 33.4779 3.87012 32.974 3.87012C32.3412 3.87012 31.7289 4.05469 31.1371 4.42383C30.5511 4.78711 30.0707 5.2998 29.6957 5.96191C29.3265 6.62402 29.142 7.37988 29.142 8.22949C29.142 9.09082 29.2972 9.82617 29.6078 10.4355C29.9183 11.0449 30.3373 11.5049 30.8646 11.8154C31.392 12.1201 31.9808 12.2725 32.6312 12.2725ZM32.4818 5.33789C32.8158 5.33789 33.0619 5.46387 33.2201 5.71582C33.3783 5.96191 33.4574 6.2959 33.4574 6.71777C33.4574 6.7998 33.4515 6.90527 33.4398 7.03418C33.434 7.16309 33.4222 7.25391 33.4047 7.30664L31.3392 7.50879C31.351 7.06348 31.4095 6.67676 31.515 6.34863C31.6205 6.02051 31.7582 5.77148 31.9281 5.60156C32.098 5.42578 32.2826 5.33789 32.4818 5.33789ZM42.9161 15.3486C43.461 15.3486 43.9298 15.252 44.3223 15.0586C44.7149 14.8652 45.0723 14.5488 45.3946 14.1094C45.7227 13.6699 46.0508 13.0664 46.379 12.2988L49.253 5.5752L50.1231 5.12695L50.2286 4.10742H46.88L46.6954 5.12695L47.7852 5.60156L46.1592 9.60938L44.6387 5.54004L45.588 5.12695L45.7198 4.10742H41.4395L41.2813 5.14453L42.3887 5.5752L45.0079 12.0791L44.8673 12.3955C44.7032 12.7529 44.504 12.9961 44.2696 13.125C44.0411 13.2539 43.7833 13.3184 43.4962 13.3184C43.1915 13.3184 42.8956 13.2656 42.6085 13.1602C42.3214 13.0605 42.0665 12.9111 41.8438 12.7119C41.6036 12.9404 41.4395 13.1631 41.3516 13.3799C41.2696 13.6025 41.2286 13.8457 41.2286 14.1094C41.2286 14.3262 41.3077 14.5283 41.4659 14.7158C41.6241 14.9092 41.8321 15.0615 42.0899 15.1729C42.3477 15.29 42.6231 15.3486 42.9161 15.3486ZM55.1161 12.2373C55.8779 12.2373 56.5605 12.0586 57.164 11.7012C57.7675 11.3379 58.2392 10.8281 58.579 10.1719C58.9189 9.51562 59.0888 8.75977 59.0888 7.9043C59.0888 7.04883 58.9423 6.31934 58.6493 5.71582C58.3564 5.10645 57.9257 4.64355 57.3573 4.32715C56.7948 4.01074 56.1152 3.85254 55.3183 3.85254C54.6445 3.85254 53.9941 4.02246 53.3671 4.3623C52.7402 4.70215 52.2275 5.19434 51.829 5.83887C51.4306 6.47754 51.2314 7.22461 51.2314 8.08008C51.2314 8.85938 51.3661 9.5625 51.6357 10.1895C51.9052 10.8105 52.33 11.3086 52.9101 11.6836C53.496 12.0527 54.2314 12.2373 55.1161 12.2373ZM54.9667 5.23242C55.6464 5.23242 56.1239 5.58398 56.3993 6.28711C56.6806 6.99023 56.8212 7.8457 56.8212 8.85352C56.8212 9.50977 56.704 10.0254 56.4697 10.4004C56.2353 10.7695 55.8808 10.9541 55.4062 10.9541C54.7382 10.9541 54.2489 10.6436 53.9384 10.0225C53.6337 9.39551 53.4814 8.55469 53.4814 7.5C53.4814 6.80273 53.5986 6.25195 53.8329 5.84766C54.0732 5.4375 54.4511 5.23242 54.9667 5.23242ZM61.2166 9.65332C61.2166 10.5732 61.3865 11.2354 61.7263 11.6396C62.072 12.0381 62.6199 12.2373 63.3699 12.2373C63.8562 12.2373 64.3132 12.1172 64.741 11.877C65.1746 11.6367 65.532 11.291 65.8132 10.8398L65.9275 10.8574V10.9629C65.9275 11.3789 66.0623 11.6982 66.3318 11.9209C66.6013 12.1436 66.9705 12.2549 67.4392 12.2549C67.7381 12.2549 68.0252 12.2256 68.3006 12.167C68.5818 12.1143 68.8777 12.0293 69.1882 11.9121L69.3289 10.8047L69.0125 10.7168C68.7254 10.6348 68.5086 10.5527 68.3621 10.4707C68.2156 10.3828 68.1072 10.2598 68.0369 10.1016C67.9666 9.9375 67.9314 9.70898 67.9314 9.41602V4.37109L67.6062 4.02832L64.741 4.33594L64.5476 5.6543L65.7605 6.17285V9.64453C65.5613 9.83203 65.3621 9.97266 65.1629 10.0664C64.9636 10.1543 64.7234 10.1982 64.4422 10.1982C64.0965 10.1982 63.8357 10.0723 63.6599 9.82031C63.49 9.56836 63.405 9.14355 63.405 8.5459V4.40625L63.0535 4.06348L60.2761 4.24805L60.0652 5.4082L61.2166 6.11133V9.65332ZM78.4975 12.2637C78.9253 12.2637 79.3413 12.1992 79.7456 12.0703C80.1499 11.9473 80.5044 11.7773 80.8091 11.5605C81.1196 11.3438 81.351 11.1094 81.5034 10.8574L81.2221 10.1455C80.9057 10.3389 80.604 10.4854 80.3169 10.585C80.0298 10.6787 79.6753 10.7256 79.2534 10.7256C78.7495 10.7256 78.3188 10.5645 77.9614 10.2422C77.6098 9.91406 77.3432 9.50391 77.1616 9.01172C76.9858 8.51367 76.8979 8.0127 76.8979 7.50879C76.8979 6.7002 77.021 6.08789 77.2671 5.67188C77.5132 5.25586 77.8647 5.04785 78.3217 5.04785C78.6264 5.04785 78.8872 5.18848 79.104 5.46973C79.3208 5.74512 79.5317 6.17578 79.7368 6.76172C80.1821 6.7207 80.5337 6.59766 80.7915 6.39258C81.0551 6.1875 81.187 5.90039 81.187 5.53125C81.187 5.20898 81.0962 4.91602 80.9145 4.65234C80.7329 4.38867 80.4663 4.18066 80.1147 4.02832C79.7632 3.87012 79.3471 3.79102 78.8667 3.79102C78.1811 3.79102 77.5102 3.97559 76.854 4.34473C76.2036 4.70801 75.6704 5.23242 75.2544 5.91797C74.8442 6.60352 74.6391 7.40039 74.6391 8.30859C74.6391 9.07617 74.7827 9.75879 75.0698 10.3564C75.3569 10.9482 75.7876 11.4141 76.3618 11.7539C76.9419 12.0938 77.6538 12.2637 78.4975 12.2637ZM84.1146 12.2109C84.4896 12.2109 84.8382 12.1406 85.1605 12C85.4886 11.8652 85.764 11.6953 85.9866 11.4902C86.2151 11.2852 86.3734 11.0801 86.4612 10.875L86.5667 10.9014L86.5931 11.0244C86.6751 11.3877 86.8157 11.6719 87.015 11.877C87.22 12.082 87.5482 12.1846 87.9993 12.1846C88.3275 12.1846 88.5911 12.1582 88.7903 12.1055C88.9954 12.0527 89.1976 11.9648 89.3968 11.8418L89.5638 10.7168L89.221 10.6553C88.9398 10.6025 88.7405 10.5322 88.6234 10.4443C88.512 10.3506 88.4446 10.2305 88.4212 10.084C88.3978 9.9375 88.386 9.69141 88.386 9.3457V6.57715C88.386 5.63965 88.1898 4.95703 87.7972 4.5293C87.4046 4.0957 86.8392 3.87891 86.1009 3.87891C85.6028 3.87891 85.0726 3.98438 84.5101 4.19531C83.9476 4.40039 83.4759 4.66406 83.095 4.98633C82.72 5.30859 82.5325 5.62793 82.5325 5.94434C82.5325 6.36035 82.6819 6.63574 82.9808 6.77051C83.2796 6.90527 83.6693 6.97266 84.1497 6.97266C84.1907 6.45703 84.2347 6.07324 84.2816 5.82129C84.3284 5.56934 84.4046 5.38477 84.5101 5.26758C84.6214 5.14453 84.7825 5.08301 84.9935 5.08301C85.4212 5.08301 85.7493 5.26172 85.9778 5.61914C86.2064 5.97656 86.3206 6.42188 86.3206 6.95508V7.61426C85.4417 7.64355 84.7005 7.79004 84.097 8.05371C83.4935 8.31738 83.0394 8.65723 82.7347 9.07324C82.4359 9.48926 82.2864 9.94336 82.2864 10.4355C82.2864 11.0039 82.4534 11.4434 82.7874 11.7539C83.1273 12.0586 83.5696 12.2109 84.1146 12.2109ZM86.3206 10.1455C86.1683 10.2861 85.9896 10.4092 85.7845 10.5146C85.5853 10.6143 85.389 10.6641 85.1956 10.6641C84.9378 10.6641 84.7327 10.5791 84.5804 10.4092C84.4339 10.2393 84.3607 10.0459 84.3607 9.8291C84.3607 9.48926 84.5101 9.19043 84.8089 8.93262C85.1136 8.6748 85.6175 8.4873 86.3206 8.37012V10.1455ZM95.383 10.9277L94.1877 10.4883V6.60352C94.5861 6.20508 95.0607 6.00586 95.6115 6.00586C95.9806 6.00586 96.2707 6.13477 96.4816 6.39258C96.6925 6.64453 96.798 7.04004 96.798 7.5791V10.4883L96.1916 10.9893L96.1476 12H100.041L100.182 10.9277L98.8986 10.4883V6.48047C98.8986 5.64844 98.7111 5.02148 98.3361 4.59961C97.9611 4.17773 97.4337 3.9668 96.7541 3.9668C96.2677 3.9668 95.8136 4.08984 95.3918 4.33594C94.9699 4.58203 94.5627 4.92188 94.1701 5.35547L94.0558 5.3291L94.2316 4.31836L93.9943 4.06348L90.9093 4.3623L90.7423 5.43457L92.0431 6.02344V10.4883L90.7599 10.9893L90.6369 12H95.1896L95.383 10.9277ZM108.797 12.3076C109.389 12.3076 109.931 12.2051 110.423 12C110.921 11.8008 111.316 11.5137 111.609 11.1387C111.902 10.7637 112.049 10.3301 112.049 9.83789C112.049 9.38672 111.931 8.99707 111.697 8.66895C111.463 8.33496 111.181 8.05957 110.853 7.84277C110.525 7.62012 110.1 7.37402 109.579 7.10449C109.222 6.92285 108.94 6.77051 108.735 6.64746C108.53 6.51855 108.36 6.37793 108.225 6.22559C108.091 6.07324 108.023 5.90625 108.023 5.72461C108.023 5.49023 108.099 5.29395 108.252 5.13574C108.41 4.97754 108.621 4.89844 108.885 4.89844C109.172 4.89844 109.435 4.99219 109.676 5.17969C109.916 5.36719 110.095 5.69531 110.212 6.16406L110.388 6.72656C110.804 6.69141 111.149 6.55078 111.425 6.30469C111.7 6.05273 111.838 5.74219 111.838 5.37305C111.838 4.89258 111.603 4.52344 111.135 4.26562C110.672 4.00781 110.062 3.87891 109.306 3.87891C108.615 3.87891 108.038 4.0166 107.575 4.29199C107.118 4.56738 106.781 4.90723 106.564 5.31152C106.353 5.70996 106.248 6.09668 106.248 6.47168C106.248 6.92871 106.365 7.32715 106.599 7.66699C106.84 8.00098 107.121 8.2793 107.443 8.50195C107.765 8.71875 108.184 8.96191 108.7 9.23145C109.034 9.40137 109.292 9.54199 109.473 9.65332C109.661 9.76465 109.813 9.8877 109.931 10.0225C110.054 10.1572 110.115 10.3008 110.115 10.4531C110.115 10.7109 110.024 10.8955 109.843 11.0068C109.661 11.1182 109.397 11.1738 109.052 11.1738C108.706 11.1738 108.389 11.0215 108.102 10.7168C107.815 10.4062 107.587 9.95508 107.417 9.36328C106.972 9.39844 106.623 9.53027 106.371 9.75879C106.119 9.9873 105.993 10.2832 105.993 10.6465C105.993 10.957 106.119 11.2383 106.371 11.4902C106.629 11.7422 106.972 11.9414 107.399 12.0879C107.833 12.2344 108.299 12.3076 108.797 12.3076ZM116.488 12.2725C117.056 12.2725 117.619 12.1758 118.175 11.9824C118.732 11.7891 119.189 11.5078 119.547 11.1387L119.371 10.1455C119.025 10.3271 118.688 10.4473 118.36 10.5059C118.038 10.5586 117.68 10.585 117.288 10.585C116.626 10.585 116.125 10.3828 115.785 9.97852C115.445 9.57422 115.258 9.05859 115.222 8.43164L119.186 8.34375C119.221 8.18555 119.257 7.93945 119.292 7.60547C119.333 7.27148 119.353 7.03418 119.353 6.89355C119.353 6.28418 119.248 5.75098 119.037 5.29395C118.832 4.83691 118.539 4.48535 118.158 4.23926C117.777 3.99316 117.335 3.87012 116.831 3.87012C116.198 3.87012 115.586 4.05469 114.994 4.42383C114.408 4.78711 113.927 5.2998 113.552 5.96191C113.183 6.62402 112.999 7.37988 112.999 8.22949C112.999 9.09082 113.154 9.82617 113.465 10.4355C113.775 11.0449 114.194 11.5049 114.721 11.8154C115.249 12.1201 115.838 12.2725 116.488 12.2725ZM116.339 5.33789C116.673 5.33789 116.919 5.46387 117.077 5.71582C117.235 5.96191 117.314 6.2959 117.314 6.71777C117.314 6.7998 117.308 6.90527 117.297 7.03418C117.291 7.16309 117.279 7.25391 117.261 7.30664L115.196 7.50879C115.208 7.06348 115.266 6.67676 115.372 6.34863C115.477 6.02051 115.615 5.77148 115.785 5.60156C115.955 5.42578 116.139 5.33789 116.339 5.33789ZM125.339 12L125.454 10.8838L124.065 10.4795V0.908203L123.705 0.556641L120.725 0.767578L120.523 1.85742L121.947 2.54297V10.4795L120.611 10.875L120.497 12H125.339ZM129.954 12.2725C130.523 12.2725 131.085 12.1758 131.642 11.9824C132.199 11.7891 132.656 11.5078 133.013 11.1387L132.837 10.1455C132.492 10.3271 132.155 10.4473 131.827 10.5059C131.504 10.5586 131.147 10.585 130.754 10.585C130.092 10.585 129.591 10.3828 129.251 9.97852C128.912 9.57422 128.724 9.05859 128.689 8.43164L132.653 8.34375C132.688 8.18555 132.723 7.93945 132.758 7.60547C132.799 7.27148 132.82 7.03418 132.82 6.89355C132.82 6.28418 132.714 5.75098 132.503 5.29395C132.298 4.83691 132.005 4.48535 131.624 4.23926C131.244 3.99316 130.801 3.87012 130.297 3.87012C129.664 3.87012 129.052 4.05469 128.46 4.42383C127.874 4.78711 127.394 5.2998 127.019 5.96191C126.65 6.62402 126.465 7.37988 126.465 8.22949C126.465 9.09082 126.62 9.82617 126.931 10.4355C127.242 11.0449 127.661 11.5049 128.188 11.8154C128.715 12.1201 129.304 12.2725 129.954 12.2725ZM129.805 5.33789C130.139 5.33789 130.385 5.46387 130.543 5.71582C130.702 5.96191 130.781 6.2959 130.781 6.71777C130.781 6.7998 130.775 6.90527 130.763 7.03418C130.757 7.16309 130.745 7.25391 130.728 7.30664L128.662 7.50879C128.674 7.06348 128.733 6.67676 128.838 6.34863C128.944 6.02051 129.081 5.77148 129.251 5.60156C129.421 5.42578 129.606 5.33789 129.805 5.33789ZM137.742 12.2637C138.17 12.2637 138.586 12.1992 138.99 12.0703C139.395 11.9473 139.749 11.7773 140.054 11.5605C140.365 11.3438 140.596 11.1094 140.748 10.8574L140.467 10.1455C140.151 10.3389 139.849 10.4854 139.562 10.585C139.275 10.6787 138.92 10.7256 138.498 10.7256C137.994 10.7256 137.564 10.5645 137.206 10.2422C136.855 9.91406 136.588 9.50391 136.406 9.01172C136.231 8.51367 136.143 8.0127 136.143 7.50879C136.143 6.7002 136.266 6.08789 136.512 5.67188C136.758 5.25586 137.11 5.04785 137.567 5.04785C137.871 5.04785 138.132 5.18848 138.349 5.46973C138.566 5.74512 138.777 6.17578 138.982 6.76172C139.427 6.7207 139.779 6.59766 140.036 6.39258C140.3 6.1875 140.432 5.90039 140.432 5.53125C140.432 5.20898 140.341 4.91602 140.159 4.65234C139.978 4.38867 139.711 4.18066 139.36 4.02832C139.008 3.87012 138.592 3.79102 138.112 3.79102C137.426 3.79102 136.755 3.97559 136.099 4.34473C135.448 4.70801 134.915 5.23242 134.499 5.91797C134.089 6.60352 133.884 7.40039 133.884 8.30859C133.884 9.07617 134.028 9.75879 134.315 10.3564C134.602 10.9482 135.032 11.4141 135.607 11.7539C136.187 12.0938 136.899 12.2637 137.742 12.2637ZM142.41 9.55664C142.404 10.2188 142.478 10.7432 142.63 11.1299C142.788 11.5166 143.028 11.792 143.351 11.9561C143.673 12.1201 144.098 12.2021 144.625 12.2021C145.205 12.2021 145.718 12.0791 146.163 11.833C146.614 11.5869 146.972 11.2793 147.235 10.9102L147.016 10.0928C146.986 10.1104 146.916 10.1484 146.805 10.207C146.699 10.2656 146.562 10.3242 146.392 10.3828C146.228 10.4355 146.061 10.4619 145.891 10.4619C145.416 10.4619 145.079 10.3535 144.88 10.1367C144.687 9.91992 144.59 9.55664 144.59 9.04688L144.608 5.67188H146.989L147.077 4.42383H144.634V2.49023H143.685C143.374 2.93555 143.023 3.35742 142.63 3.75586C142.243 4.14844 141.848 4.48242 141.443 4.75781V5.64551H142.437L142.41 9.55664ZM154.55 15.3486C155.095 15.3486 155.563 15.252 155.956 15.0586C156.348 14.8652 156.706 14.5488 157.028 14.1094C157.356 13.6699 157.684 13.0664 158.012 12.2988L160.887 5.5752L161.757 5.12695L161.862 4.10742H158.513L158.329 5.12695L159.419 5.60156L157.793 9.60938L156.272 5.54004L157.221 5.12695L157.353 4.10742H153.073L152.915 5.14453L154.022 5.5752L156.641 12.0791L156.501 12.3955C156.337 12.7529 156.137 12.9961 155.903 13.125C155.675 13.2539 155.417 13.3184 155.13 13.3184C154.825 13.3184 154.529 13.2656 154.242 13.1602C153.955 13.0605 153.7 12.9111 153.477 12.7119C153.237 12.9404 153.073 13.1631 152.985 13.3799C152.903 13.6025 152.862 13.8457 152.862 14.1094C152.862 14.3262 152.941 14.5283 153.099 14.7158C153.258 14.9092 153.466 15.0615 153.723 15.1729C153.981 15.29 154.257 15.3486 154.55 15.3486ZM166.75 12.2373C167.511 12.2373 168.194 12.0586 168.797 11.7012C169.401 11.3379 169.873 10.8281 170.213 10.1719C170.552 9.51562 170.722 8.75977 170.722 7.9043C170.722 7.04883 170.576 6.31934 170.283 5.71582C169.99 5.10645 169.559 4.64355 168.991 4.32715C168.428 4.01074 167.749 3.85254 166.952 3.85254C166.278 3.85254 165.628 4.02246 165.001 4.3623C164.374 4.70215 163.861 5.19434 163.463 5.83887C163.064 6.47754 162.865 7.22461 162.865 8.08008C162.865 8.85938 163 9.5625 163.269 10.1895C163.539 10.8105 163.964 11.3086 164.544 11.6836C165.13 12.0527 165.865 12.2373 166.75 12.2373ZM166.6 5.23242C167.28 5.23242 167.757 5.58398 168.033 6.28711C168.314 6.99023 168.455 7.8457 168.455 8.85352C168.455 9.50977 168.338 10.0254 168.103 10.4004C167.869 10.7695 167.514 10.9541 167.04 10.9541C166.372 10.9541 165.882 10.6436 165.572 10.0225C165.267 9.39551 165.115 8.55469 165.115 7.5C165.115 6.80273 165.232 6.25195 165.466 5.84766C165.707 5.4375 166.085 5.23242 166.6 5.23242ZM172.85 9.65332C172.85 10.5732 173.02 11.2354 173.36 11.6396C173.706 12.0381 174.253 12.2373 175.003 12.2373C175.49 12.2373 175.947 12.1172 176.374 11.877C176.808 11.6367 177.165 11.291 177.447 10.8398L177.561 10.8574V10.9629C177.561 11.3789 177.696 11.6982 177.965 11.9209C178.235 12.1436 178.604 12.2549 179.073 12.2549C179.372 12.2549 179.659 12.2256 179.934 12.167C180.215 12.1143 180.511 12.0293 180.822 11.9121L180.962 10.8047L180.646 10.7168C180.359 10.6348 180.142 10.5527 179.996 10.4707C179.849 10.3828 179.741 10.2598 179.67 10.1016C179.6 9.9375 179.565 9.70898 179.565 9.41602V4.37109L179.24 4.02832L176.374 4.33594L176.181 5.6543L177.394 6.17285V9.64453C177.195 9.83203 176.996 9.97266 176.796 10.0664C176.597 10.1543 176.357 10.1982 176.076 10.1982C175.73 10.1982 175.469 10.0723 175.293 9.82031C175.124 9.56836 175.039 9.14355 175.039 8.5459V4.40625L174.687 4.06348L171.91 4.24805L171.699 5.4082L172.85 6.11133V9.65332ZM187.283 10.7871L185.208 10.3652V7.76367C185.308 7.31836 185.475 6.95508 185.709 6.67383C185.95 6.39258 186.231 6.25195 186.553 6.25195C186.887 6.25195 187.256 6.38086 187.66 6.63867C187.912 6.42773 188.109 6.20215 188.249 5.96191C188.39 5.71582 188.46 5.4375 188.46 5.12695C188.46 4.78711 188.346 4.50293 188.117 4.27441C187.895 4.0459 187.593 3.93164 187.212 3.93164C186.773 3.93164 186.363 4.10449 185.982 4.4502C185.607 4.79004 185.311 5.30859 185.094 6.00586L184.927 5.96191L185.094 4.33594L184.822 4.05469L181.956 4.34473L181.781 5.41699L183.117 5.9707V10.4883L181.798 10.9629L181.658 11.9912H187.177L187.283 10.7871ZM3.20296 28C3.53695 28 3.82113 27.9443 4.0555 27.833C4.29574 27.7217 4.47738 27.5723 4.60043 27.3848C4.72347 27.1973 4.785 26.9922 4.785 26.7695C4.785 26.5527 4.72054 26.3564 4.59164 26.1807C4.46273 25.999 4.27816 25.8555 4.03793 25.75C3.79769 25.6445 3.51937 25.5918 3.20296 25.5918C2.89242 25.5918 2.61996 25.6445 2.38558 25.75C2.15707 25.8496 1.97836 25.9873 1.84945 26.1631C1.7264 26.3389 1.66488 26.5352 1.66488 26.752C1.66488 27.1094 1.79379 27.4082 2.0516 27.6484C2.31527 27.8828 2.69906 28 3.20296 28ZM5.69906 37L5.79574 35.8838L4.3807 35.4795V29.3887L4.02914 29.0371L1.14632 29.248L0.952965 30.3467L2.26254 31.0674V35.4795L0.917809 35.875L0.829918 37H5.69906ZM11.6325 35.9277L10.4372 35.4883V31.6035C10.8356 31.2051 11.3102 31.0059 11.861 31.0059C12.2302 31.0059 12.5202 31.1348 12.7311 31.3926C12.9421 31.6445 13.0475 32.04 13.0475 32.5791V35.4883L12.4411 35.9893L12.3971 37H16.2907L16.4313 35.9277L15.1481 35.4883V31.4805C15.1481 30.6484 14.9606 30.0215 14.5856 29.5996C14.2106 29.1777 13.6833 28.9668 13.0036 28.9668C12.5173 28.9668 12.0632 29.0898 11.6413 29.3359C11.2194 29.582 10.8122 29.9219 10.4196 30.3555L10.3054 30.3291L10.4811 29.3184L10.2438 29.0635L7.15887 29.3623L6.99187 30.4346L8.29266 31.0234V35.4883L7.00945 35.9893L6.88641 37H11.4391L11.6325 35.9277ZM18.4361 34.5566C18.4302 35.2188 18.5034 35.7432 18.6558 36.1299C18.814 36.5166 19.0542 36.792 19.3765 36.9561C19.6988 37.1201 20.1236 37.2021 20.6509 37.2021C21.231 37.2021 21.7437 37.0791 22.189 36.833C22.6402 36.5869 22.9976 36.2793 23.2613 35.9102L23.0415 35.0928C23.0122 35.1104 22.9419 35.1484 22.8306 35.207C22.7251 35.2656 22.5874 35.3242 22.4175 35.3828C22.2534 35.4355 22.0865 35.4619 21.9165 35.4619C21.4419 35.4619 21.105 35.3535 20.9058 35.1367C20.7124 34.9199 20.6158 34.5566 20.6158 34.0469L20.6333 30.6719H23.0152L23.1031 29.4238H20.6597V27.4902H19.7105C19.3999 27.9355 19.0484 28.3574 18.6558 28.7559C18.2691 29.1484 17.8736 29.4824 17.4693 29.7578V30.6455H18.4624L18.4361 34.5566ZM27.7094 37.2725C28.2777 37.2725 28.8402 37.1758 29.3969 36.9824C29.9535 36.7891 30.4105 36.5078 30.7679 36.1387L30.5922 35.1455C30.2465 35.3271 29.9095 35.4473 29.5814 35.5059C29.2592 35.5586 28.9017 35.585 28.5092 35.585C27.847 35.585 27.3461 35.3828 27.0062 34.9785C26.6664 34.5742 26.4789 34.0586 26.4437 33.4316L30.4076 33.3438C30.4427 33.1855 30.4779 32.9395 30.5131 32.6055C30.5541 32.2715 30.5746 32.0342 30.5746 31.8936C30.5746 31.2842 30.4691 30.751 30.2582 30.2939C30.0531 29.8369 29.7601 29.4854 29.3793 29.2393C28.9984 28.9932 28.556 28.8701 28.0521 28.8701C27.4193 28.8701 26.807 29.0547 26.2152 29.4238C25.6293 29.7871 25.1488 30.2998 24.7738 30.9619C24.4047 31.624 24.2201 32.3799 24.2201 33.2295C24.2201 34.0908 24.3754 34.8262 24.6859 35.4355C24.9965 36.0449 25.4154 36.5049 25.9427 36.8154C26.4701 37.1201 27.059 37.2725 27.7094 37.2725ZM27.5599 30.3379C27.8939 30.3379 28.14 30.4639 28.2982 30.7158C28.4564 30.9619 28.5355 31.2959 28.5355 31.7178C28.5355 31.7998 28.5297 31.9053 28.5179 32.0342C28.5121 32.1631 28.5004 32.2539 28.4828 32.3066L26.4174 32.5088C26.4291 32.0635 26.4877 31.6768 26.5931 31.3486C26.6986 31.0205 26.8363 30.7715 27.0062 30.6016C27.1761 30.4258 27.3607 30.3379 27.5599 30.3379ZM37.3254 35.7871L35.2512 35.3652V32.7637C35.3508 32.3184 35.5178 31.9551 35.7522 31.6738C35.9924 31.3926 36.2737 31.252 36.5959 31.252C36.9299 31.252 37.299 31.3809 37.7033 31.6387C37.9553 31.4277 38.1516 31.2021 38.2922 30.9619C38.4328 30.7158 38.5032 30.4375 38.5032 30.127C38.5032 29.7871 38.3889 29.5029 38.1604 29.2744C37.9377 29.0459 37.636 28.9316 37.2551 28.9316C36.8157 28.9316 36.4055 29.1045 36.0246 29.4502C35.6496 29.79 35.3537 30.3086 35.1369 31.0059L34.9699 30.9619L35.1369 29.3359L34.8645 29.0547L31.9992 29.3447L31.8235 30.417L33.1594 30.9707V35.4883L31.841 35.9629L31.7004 36.9912H37.2199L37.3254 35.7871ZM42.4942 37.2725C43.0626 37.2725 43.6251 37.1758 44.1817 36.9824C44.7383 36.7891 45.1954 36.5078 45.5528 36.1387L45.377 35.1455C45.0313 35.3271 44.6944 35.4473 44.3663 35.5059C44.044 35.5586 43.6866 35.585 43.294 35.585C42.6319 35.585 42.1309 35.3828 41.7911 34.9785C41.4512 34.5742 41.2637 34.0586 41.2286 33.4316L45.1925 33.3438C45.2276 33.1855 45.2628 32.9395 45.2979 32.6055C45.3389 32.2715 45.3594 32.0342 45.3594 31.8936C45.3594 31.2842 45.254 30.751 45.043 30.2939C44.838 29.8369 44.545 29.4854 44.1641 29.2393C43.7833 28.9932 43.3409 28.8701 42.837 28.8701C42.2042 28.8701 41.5919 29.0547 41.0001 29.4238C40.4141 29.7871 39.9337 30.2998 39.5587 30.9619C39.1895 31.624 39.005 32.3799 39.005 33.2295C39.005 34.0908 39.1602 34.8262 39.4708 35.4355C39.7813 36.0449 40.2003 36.5049 40.7276 36.8154C41.255 37.1201 41.8438 37.2725 42.4942 37.2725ZM42.3448 30.3379C42.6788 30.3379 42.9249 30.4639 43.0831 30.7158C43.2413 30.9619 43.3204 31.2959 43.3204 31.7178C43.3204 31.7998 43.3145 31.9053 43.3028 32.0342C43.2969 32.1631 43.2852 32.2539 43.2676 32.3066L41.2022 32.5088C41.2139 32.0635 41.2725 31.6768 41.378 31.3486C41.4835 31.0205 41.6212 30.7715 41.7911 30.6016C41.961 30.4258 42.1456 30.3379 42.3448 30.3379ZM49.3241 37.3076C49.9159 37.3076 50.4579 37.2051 50.9501 37C51.4482 36.8008 51.8437 36.5137 52.1366 36.1387C52.4296 35.7637 52.5761 35.3301 52.5761 34.8379C52.5761 34.3867 52.4589 33.9971 52.2245 33.6689C51.9902 33.335 51.7089 33.0596 51.3808 32.8428C51.0527 32.6201 50.6279 32.374 50.1064 32.1045C49.7489 31.9229 49.4677 31.7705 49.2626 31.6475C49.0575 31.5186 48.8876 31.3779 48.7529 31.2256C48.6181 31.0732 48.5507 30.9062 48.5507 30.7246C48.5507 30.4902 48.6269 30.2939 48.7792 30.1357C48.9374 29.9775 49.1484 29.8984 49.412 29.8984C49.6991 29.8984 49.9628 29.9922 50.203 30.1797C50.4433 30.3672 50.622 30.6953 50.7392 31.1641L50.915 31.7266C51.331 31.6914 51.6767 31.5508 51.9521 31.3047C52.2275 31.0527 52.3652 30.7422 52.3652 30.373C52.3652 29.8926 52.1308 29.5234 51.662 29.2656C51.1991 29.0078 50.5898 28.8789 49.8339 28.8789C49.1425 28.8789 48.5654 29.0166 48.1025 29.292C47.6454 29.5674 47.3085 29.9072 47.0917 30.3115C46.8808 30.71 46.7753 31.0967 46.7753 31.4717C46.7753 31.9287 46.8925 32.3271 47.1269 32.667C47.3671 33.001 47.6484 33.2793 47.9706 33.502C48.2929 33.7188 48.7118 33.9619 49.2275 34.2314C49.5614 34.4014 49.8193 34.542 50.0009 34.6533C50.1884 34.7646 50.3407 34.8877 50.4579 35.0225C50.581 35.1572 50.6425 35.3008 50.6425 35.4531C50.6425 35.7109 50.5517 35.8955 50.37 36.0068C50.1884 36.1182 49.9247 36.1738 49.579 36.1738C49.2333 36.1738 48.9169 36.0215 48.6298 35.7168C48.3427 35.4062 48.1142 34.9551 47.9443 34.3633C47.4989 34.3984 47.1503 34.5303 46.8984 34.7588C46.6464 34.9873 46.5204 35.2832 46.5204 35.6465C46.5204 35.957 46.6464 36.2383 46.8984 36.4902C47.1562 36.7422 47.4989 36.9414 47.9267 37.0879C48.3603 37.2344 48.8261 37.3076 49.3241 37.3076ZM54.4929 34.5566C54.4871 35.2188 54.5603 35.7432 54.7127 36.1299C54.8709 36.5166 55.1111 36.792 55.4334 36.9561C55.7556 37.1201 56.1804 37.2021 56.7078 37.2021C57.2879 37.2021 57.8006 37.0791 58.2459 36.833C58.697 36.5869 59.0545 36.2793 59.3181 35.9102L59.0984 35.0928C59.0691 35.1104 58.9988 35.1484 58.8875 35.207C58.782 35.2656 58.6443 35.3242 58.4744 35.3828C58.3103 35.4355 58.1433 35.4619 57.9734 35.4619C57.4988 35.4619 57.1619 35.3535 56.9627 35.1367C56.7693 34.9199 56.6726 34.5566 56.6726 34.0469L56.6902 30.6719H59.072L59.1599 29.4238H56.7166V27.4902H55.7673C55.4568 27.9355 55.1052 28.3574 54.7127 28.7559C54.3259 29.1484 53.9304 29.4824 53.5261 29.7578V30.6455H54.5193L54.4929 34.5566ZM63.1774 37.3076C63.7691 37.3076 64.3111 37.2051 64.8033 37C65.3014 36.8008 65.6969 36.5137 65.9899 36.1387C66.2828 35.7637 66.4293 35.3301 66.4293 34.8379C66.4293 34.3867 66.3121 33.9971 66.0777 33.6689C65.8434 33.335 65.5621 33.0596 65.234 32.8428C64.9059 32.6201 64.4811 32.374 63.9596 32.1045C63.6022 31.9229 63.3209 31.7705 63.1158 31.6475C62.9108 31.5186 62.7408 31.3779 62.6061 31.2256C62.4713 31.0732 62.4039 30.9062 62.4039 30.7246C62.4039 30.4902 62.4801 30.2939 62.6324 30.1357C62.7906 29.9775 63.0016 29.8984 63.2652 29.8984C63.5524 29.8984 63.816 29.9922 64.0563 30.1797C64.2965 30.3672 64.4752 30.6953 64.5924 31.1641L64.7682 31.7266C65.1842 31.6914 65.5299 31.5508 65.8053 31.3047C66.0807 31.0527 66.2184 30.7422 66.2184 30.373C66.2184 29.8926 65.984 29.5234 65.5152 29.2656C65.0524 29.0078 64.443 28.8789 63.6871 28.8789C62.9957 28.8789 62.4186 29.0166 61.9557 29.292C61.4986 29.5674 61.1617 29.9072 60.9449 30.3115C60.734 30.71 60.6285 31.0967 60.6285 31.4717C60.6285 31.9287 60.7457 32.3271 60.9801 32.667C61.2203 33.001 61.5016 33.2793 61.8238 33.502C62.1461 33.7188 62.565 33.9619 63.0807 34.2314C63.4147 34.4014 63.6725 34.542 63.8541 34.6533C64.0416 34.7646 64.194 34.8877 64.3111 35.0225C64.4342 35.1572 64.4957 35.3008 64.4957 35.4531C64.4957 35.7109 64.4049 35.8955 64.2233 36.0068C64.0416 36.1182 63.7779 36.1738 63.4322 36.1738C63.0865 36.1738 62.7701 36.0215 62.483 35.7168C62.1959 35.4062 61.9674 34.9551 61.7975 34.3633C61.3522 34.3984 61.0035 34.5303 60.7516 34.7588C60.4996 34.9873 60.3736 35.2832 60.3736 35.6465C60.3736 35.957 60.4996 36.2383 60.7516 36.4902C61.0094 36.7422 61.3522 36.9414 61.7799 37.0879C62.2135 37.2344 62.6793 37.3076 63.1774 37.3076ZM73.972 37.2109C74.347 37.2109 74.6956 37.1406 75.0179 37C75.346 36.8652 75.6214 36.6953 75.8441 36.4902C76.0726 36.2852 76.2308 36.0801 76.3187 35.875L76.4241 35.9014L76.4505 36.0244C76.5325 36.3877 76.6732 36.6719 76.8724 36.877C77.0775 37.082 77.4056 37.1846 77.8568 37.1846C78.1849 37.1846 78.4485 37.1582 78.6478 37.1055C78.8528 37.0527 79.055 36.9648 79.2542 36.8418L79.4212 35.7168L79.0784 35.6553C78.7972 35.6025 78.598 35.5322 78.4808 35.4443C78.3694 35.3506 78.3021 35.2305 78.2786 35.084C78.2552 34.9375 78.2435 34.6914 78.2435 34.3457V31.5771C78.2435 30.6396 78.0472 29.957 77.6546 29.5293C77.262 29.0957 76.6966 28.8789 75.9583 28.8789C75.4603 28.8789 74.93 28.9844 74.3675 29.1953C73.805 29.4004 73.3333 29.6641 72.9525 29.9863C72.5775 30.3086 72.39 30.6279 72.39 30.9443C72.39 31.3604 72.5394 31.6357 72.8382 31.7705C73.137 31.9053 73.5267 31.9727 74.0071 31.9727C74.0482 31.457 74.0921 31.0732 74.139 30.8213C74.1859 30.5693 74.262 30.3848 74.3675 30.2676C74.4788 30.1445 74.64 30.083 74.8509 30.083C75.2786 30.083 75.6068 30.2617 75.8353 30.6191C76.0638 30.9766 76.178 31.4219 76.178 31.9551V32.6143C75.2991 32.6436 74.5579 32.79 73.9544 33.0537C73.3509 33.3174 72.8968 33.6572 72.5921 34.0732C72.2933 34.4893 72.1439 34.9434 72.1439 35.4355C72.1439 36.0039 72.3109 36.4434 72.6448 36.7539C72.9847 37.0586 73.4271 37.2109 73.972 37.2109ZM76.178 35.1455C76.0257 35.2861 75.847 35.4092 75.6419 35.5146C75.4427 35.6143 75.2464 35.6641 75.053 35.6641C74.7952 35.6641 74.5901 35.5791 74.4378 35.4092C74.2913 35.2393 74.2181 35.0459 74.2181 34.8291C74.2181 34.4893 74.3675 34.1904 74.6663 33.9326C74.971 33.6748 75.4749 33.4873 76.178 33.3701V35.1455ZM85.2404 35.9277L84.0451 35.4883V31.6035C84.4435 31.2051 84.9181 31.0059 85.4689 31.0059C85.838 31.0059 86.1281 31.1348 86.339 31.3926C86.55 31.6445 86.6554 32.04 86.6554 32.5791V35.4883L86.049 35.9893L86.005 37H89.8986L90.0392 35.9277L88.756 35.4883V31.4805C88.756 30.6484 88.5685 30.0215 88.1935 29.5996C87.8185 29.1777 87.2912 28.9668 86.6115 28.9668C86.1252 28.9668 85.6711 29.0898 85.2492 29.3359C84.8273 29.582 84.4201 29.9219 84.0275 30.3555L83.9132 30.3291L84.089 29.3184L83.8517 29.0635L80.7668 29.3623L80.5998 30.4346L81.9005 31.0234V35.4883L80.6173 35.9893L80.4943 37H85.047L85.2404 35.9277ZM93.9951 37.1758C94.5459 37.1758 95.0029 37.0586 95.3662 36.8242C95.7354 36.5898 96.0635 36.2734 96.3506 35.875L96.4473 35.8926L96.4736 35.9805C96.5498 36.3613 96.7139 36.6602 96.9658 36.877C97.2236 37.0938 97.5723 37.2021 98.0117 37.2021C98.334 37.2021 98.6094 37.1758 98.8379 37.123C99.0723 37.0703 99.3564 36.9824 99.6904 36.8594L99.8486 35.752L99.5322 35.6641C99.2334 35.5762 99.0107 35.4971 98.8643 35.4268C98.7236 35.3506 98.6182 35.2363 98.5479 35.084C98.4775 34.9316 98.4424 34.7061 98.4424 34.4072V25.9082L98.0908 25.5566L95.1553 25.7852L94.9795 26.8311L96.4121 27.5166V28.4746L96.5088 29.3535H96.4561C96.3271 29.2656 96.1367 29.1924 95.8848 29.1338C95.6387 29.0693 95.4102 29.0371 95.1992 29.0371C94.4258 29.0371 93.7285 29.251 93.1074 29.6787C92.4922 30.1006 92.0088 30.666 91.6572 31.375C91.3115 32.0781 91.1387 32.8311 91.1387 33.6338C91.1387 34.3311 91.2559 34.9492 91.4902 35.4883C91.7246 36.0215 92.0586 36.4375 92.4922 36.7363C92.9258 37.0293 93.4268 37.1758 93.9951 37.1758ZM94.8564 30.3994C95.0967 30.3994 95.3545 30.4844 95.6299 30.6543C95.9111 30.8242 96.1631 31.0703 96.3857 31.3926V34.8555C96.1924 35.0195 95.9697 35.1572 95.7178 35.2686C95.4658 35.374 95.2197 35.4268 94.9795 35.4268C94.6572 35.4268 94.376 35.3242 94.1357 35.1191C93.9014 34.9082 93.7197 34.6152 93.5908 34.2402C93.4619 33.8652 93.3975 33.4258 93.3975 32.9219C93.3975 32.2129 93.5205 31.6152 93.7666 31.1289C94.0127 30.6426 94.376 30.3994 94.8564 30.3994ZM109 37.2725C109.568 37.2725 110.131 37.1758 110.687 36.9824C111.244 36.7891 111.701 36.5078 112.058 36.1387L111.883 35.1455C111.537 35.3271 111.2 35.4473 110.872 35.5059C110.549 35.5586 110.192 35.585 109.799 35.585C109.137 35.585 108.636 35.3828 108.297 34.9785C107.957 34.5742 107.769 34.0586 107.734 33.4316L111.698 33.3438C111.733 33.1855 111.768 32.9395 111.803 32.6055C111.844 32.2715 111.865 32.0342 111.865 31.8936C111.865 31.2842 111.759 30.751 111.549 30.2939C111.343 29.8369 111.05 29.4854 110.67 29.2393C110.289 28.9932 109.846 28.8701 109.342 28.8701C108.71 28.8701 108.097 29.0547 107.506 29.4238C106.92 29.7871 106.439 30.2998 106.064 30.9619C105.695 31.624 105.51 32.3799 105.51 33.2295C105.51 34.0908 105.666 34.8262 105.976 35.4355C106.287 36.0449 106.706 36.5049 107.233 36.8154C107.76 37.1201 108.349 37.2725 109 37.2725ZM108.85 30.3379C109.184 30.3379 109.43 30.4639 109.589 30.7158C109.747 30.9619 109.826 31.2959 109.826 31.7178C109.826 31.7998 109.82 31.9053 109.808 32.0342C109.802 32.1631 109.791 32.2539 109.773 32.3066L107.708 32.5088C107.719 32.0635 107.778 31.6768 107.883 31.3486C107.989 31.0205 108.127 30.7715 108.297 30.6016C108.466 30.4258 108.651 30.3379 108.85 30.3379ZM116.726 37L116.876 36.0859L115.812 35.6289L116.849 34.082L118.08 35.8486L117.605 36.1562L117.913 37H121.235L121.376 35.8926L120.365 35.5234L118.317 32.7285L120.171 30.4082L121.173 30.0479L121.332 29.0371H117.886L117.693 29.9424L118.572 30.3818L117.517 31.7969L116.375 30.1797L116.788 29.8633L116.498 29.0371H113.298L113.123 30.0742L114.001 30.4258L116.023 33.124L114.177 35.5762L113.105 35.9893L113 37H116.726ZM125.955 36.543V38.7578L127.713 39.2061L127.564 40.2607H122.405L122.51 39.2236L123.864 38.749V30.9883L122.528 30.4346L122.695 29.3535L125.797 29.0723L126.061 29.3184L125.903 30.25L125.991 30.2764C126.254 29.9014 126.588 29.582 126.993 29.3184C127.403 29.0488 127.871 28.9141 128.399 28.9141C128.92 28.9141 129.392 29.0518 129.814 29.3271C130.242 29.5967 130.581 30.0215 130.833 30.6016C131.085 31.1816 131.211 31.9141 131.211 32.7988C131.211 33.7012 131.03 34.4834 130.666 35.1455C130.309 35.8018 129.814 36.3027 129.181 36.6484C128.554 36.9941 127.848 37.167 127.063 37.167C126.541 37.167 126.175 37.1289 125.964 37.0527L125.955 36.543ZM127.555 30.7949C127.051 30.7949 126.518 31.0234 125.955 31.4805V35.5322C126.172 35.6318 126.383 35.7051 126.588 35.752C126.793 35.793 127.034 35.8135 127.309 35.8135C127.83 35.8135 128.238 35.6113 128.531 35.207C128.829 34.7969 128.979 34.2285 128.979 33.502C128.979 32.6348 128.859 31.9668 128.619 31.498C128.384 31.0293 128.03 30.7949 127.555 30.7949ZM135.668 37.2725C136.237 37.2725 136.799 37.1758 137.356 36.9824C137.912 36.7891 138.369 36.5078 138.727 36.1387L138.551 35.1455C138.205 35.3271 137.868 35.4473 137.54 35.5059C137.218 35.5586 136.861 35.585 136.468 35.585C135.806 35.585 135.305 35.3828 134.965 34.9785C134.625 34.5742 134.438 34.0586 134.403 33.4316L138.366 33.3438C138.402 33.1855 138.437 32.9395 138.472 32.6055C138.513 32.2715 138.533 32.0342 138.533 31.8936C138.533 31.2842 138.428 30.751 138.217 30.2939C138.012 29.8369 137.719 29.4854 137.338 29.2393C136.957 28.9932 136.515 28.8701 136.011 28.8701C135.378 28.8701 134.766 29.0547 134.174 29.4238C133.588 29.7871 133.108 30.2998 132.733 30.9619C132.364 31.624 132.179 32.3799 132.179 33.2295C132.179 34.0908 132.334 34.8262 132.645 35.4355C132.955 36.0449 133.374 36.5049 133.902 36.8154C134.429 37.1201 135.018 37.2725 135.668 37.2725ZM135.519 30.3379C135.853 30.3379 136.099 30.4639 136.257 30.7158C136.415 30.9619 136.494 31.2959 136.494 31.7178C136.494 31.7998 136.489 31.9053 136.477 32.0342C136.471 32.1631 136.459 32.2539 136.442 32.3066L134.376 32.5088C134.388 32.0635 134.447 31.6768 134.552 31.3486C134.657 31.0205 134.795 30.7715 134.965 30.6016C135.135 30.4258 135.32 30.3379 135.519 30.3379ZM145.284 35.7871L143.21 35.3652V32.7637C143.31 32.3184 143.477 31.9551 143.711 31.6738C143.951 31.3926 144.233 31.252 144.555 31.252C144.889 31.252 145.258 31.3809 145.662 31.6387C145.914 31.4277 146.11 31.2021 146.251 30.9619C146.392 30.7158 146.462 30.4375 146.462 30.127C146.462 29.7871 146.348 29.5029 146.119 29.2744C145.897 29.0459 145.595 28.9316 145.214 28.9316C144.775 28.9316 144.364 29.1045 143.983 29.4502C143.608 29.79 143.313 30.3086 143.096 31.0059L142.929 30.9619L143.096 29.3359L142.823 29.0547L139.958 29.3447L139.782 30.417L141.118 30.9707V35.4883L139.8 35.9629L139.659 36.9912H145.179L145.284 35.7871ZM149.398 28C149.732 28 150.017 27.9443 150.251 27.833C150.491 27.7217 150.673 27.5723 150.796 27.3848C150.919 27.1973 150.98 26.9922 150.98 26.7695C150.98 26.5527 150.916 26.3564 150.787 26.1807C150.658 25.999 150.474 25.8555 150.233 25.75C149.993 25.6445 149.715 25.5918 149.398 25.5918C149.088 25.5918 148.815 25.6445 148.581 25.75C148.352 25.8496 148.174 25.9873 148.045 26.1631C147.922 26.3389 147.86 26.5352 147.86 26.752C147.86 27.1094 147.989 27.4082 148.247 27.6484C148.511 27.8828 148.894 28 149.398 28ZM151.894 37L151.991 35.8838L150.576 35.4795V29.3887L150.225 29.0371L147.342 29.248L147.148 30.3467L148.458 31.0674V35.4795L147.113 35.875L147.025 37H151.894ZM156.501 37.2725C157.069 37.2725 157.632 37.1758 158.188 36.9824C158.745 36.7891 159.202 36.5078 159.559 36.1387L159.384 35.1455C159.038 35.3271 158.701 35.4473 158.373 35.5059C158.051 35.5586 157.693 35.585 157.301 35.585C156.638 35.585 156.137 35.3828 155.798 34.9785C155.458 34.5742 155.27 34.0586 155.235 33.4316L159.199 33.3438C159.234 33.1855 159.269 32.9395 159.304 32.6055C159.345 32.2715 159.366 32.0342 159.366 31.8936C159.366 31.2842 159.261 30.751 159.05 30.2939C158.845 29.8369 158.552 29.4854 158.171 29.2393C157.79 28.9932 157.347 28.8701 156.844 28.8701C156.211 28.8701 155.598 29.0547 155.007 29.4238C154.421 29.7871 153.94 30.2998 153.565 30.9619C153.196 31.624 153.012 32.3799 153.012 33.2295C153.012 34.0908 153.167 34.8262 153.477 35.4355C153.788 36.0449 154.207 36.5049 154.734 36.8154C155.262 37.1201 155.85 37.2725 156.501 37.2725ZM156.351 30.3379C156.685 30.3379 156.931 30.4639 157.09 30.7158C157.248 30.9619 157.327 31.2959 157.327 31.7178C157.327 31.7998 157.321 31.9053 157.309 32.0342C157.303 32.1631 157.292 32.2539 157.274 32.3066L155.209 32.5088C155.22 32.0635 155.279 31.6768 155.385 31.3486C155.49 31.0205 155.628 30.7715 155.798 30.6016C155.968 30.4258 156.152 30.3379 156.351 30.3379ZM165.247 35.9277L164.051 35.4883V31.6035C164.45 31.2051 164.924 31.0059 165.475 31.0059C165.844 31.0059 166.134 31.1348 166.345 31.3926C166.556 31.6445 166.662 32.04 166.662 32.5791V35.4883L166.055 35.9893L166.011 37H169.905L170.046 35.9277L168.762 35.4883V31.4805C168.762 30.6484 168.575 30.0215 168.2 29.5996C167.825 29.1777 167.297 28.9668 166.618 28.9668C166.131 28.9668 165.677 29.0898 165.255 29.3359C164.834 29.582 164.426 29.9219 164.034 30.3555L163.92 30.3291L164.095 29.3184L163.858 29.0635L160.773 29.3623L160.606 30.4346L161.907 31.0234V35.4883L160.624 35.9893L160.501 37H165.053L165.247 35.9277ZM174.942 37.2637C175.37 37.2637 175.786 37.1992 176.19 37.0703C176.594 36.9473 176.949 36.7773 177.253 36.5605C177.564 36.3438 177.795 36.1094 177.948 35.8574L177.666 35.1455C177.35 35.3389 177.048 35.4854 176.761 35.585C176.474 35.6787 176.12 35.7256 175.698 35.7256C175.194 35.7256 174.763 35.5645 174.406 35.2422C174.054 34.9141 173.788 34.5039 173.606 34.0117C173.43 33.5137 173.342 33.0127 173.342 32.5088C173.342 31.7002 173.465 31.0879 173.711 30.6719C173.957 30.2559 174.309 30.0479 174.766 30.0479C175.071 30.0479 175.332 30.1885 175.548 30.4697C175.765 30.7451 175.976 31.1758 176.181 31.7617C176.626 31.7207 176.978 31.5977 177.236 31.3926C177.499 31.1875 177.631 30.9004 177.631 30.5312C177.631 30.209 177.54 29.916 177.359 29.6523C177.177 29.3887 176.911 29.1807 176.559 29.0283C176.207 28.8701 175.791 28.791 175.311 28.791C174.625 28.791 173.955 28.9756 173.298 29.3447C172.648 29.708 172.115 30.2324 171.699 30.918C171.289 31.6035 171.083 32.4004 171.083 33.3086C171.083 34.0762 171.227 34.7588 171.514 35.3564C171.801 35.9482 172.232 36.4141 172.806 36.7539C173.386 37.0938 174.098 37.2637 174.942 37.2637ZM182.132 37.2725C182.701 37.2725 183.263 37.1758 183.82 36.9824C184.376 36.7891 184.833 36.5078 185.191 36.1387L185.015 35.1455C184.669 35.3271 184.332 35.4473 184.004 35.5059C183.682 35.5586 183.325 35.585 182.932 35.585C182.27 35.585 181.769 35.3828 181.429 34.9785C181.089 34.5742 180.902 34.0586 180.867 33.4316L184.83 33.3438C184.866 33.1855 184.901 32.9395 184.936 32.6055C184.977 32.2715 184.997 32.0342 184.997 31.8936C184.997 31.2842 184.892 30.751 184.681 30.2939C184.476 29.8369 184.183 29.4854 183.802 29.2393C183.421 28.9932 182.979 28.8701 182.475 28.8701C181.842 28.8701 181.23 29.0547 180.638 29.4238C180.052 29.7871 179.572 30.2998 179.197 30.9619C178.827 31.624 178.643 32.3799 178.643 33.2295C178.643 34.0908 178.798 34.8262 179.109 35.4355C179.419 36.0449 179.838 36.5049 180.366 36.8154C180.893 37.1201 181.482 37.2725 182.132 37.2725ZM181.983 30.3379C182.317 30.3379 182.563 30.4639 182.721 30.7158C182.879 30.9619 182.958 31.2959 182.958 31.7178C182.958 31.7998 182.952 31.9053 182.941 32.0342C182.935 32.1631 182.923 32.2539 182.906 32.3066L180.84 32.5088C180.852 32.0635 180.91 31.6768 181.016 31.3486C181.121 31.0205 181.259 30.7715 181.429 30.6016C181.599 30.4258 181.784 30.3379 181.983 30.3379ZM188.962 37.3076C189.554 37.3076 190.096 37.2051 190.588 37C191.086 36.8008 191.482 36.5137 191.775 36.1387C192.068 35.7637 192.214 35.3301 192.214 34.8379C192.214 34.3867 192.097 33.9971 191.862 33.6689C191.628 33.335 191.347 33.0596 191.019 32.8428C190.691 32.6201 190.266 32.374 189.744 32.1045C189.387 31.9229 189.106 31.7705 188.901 31.6475C188.695 31.5186 188.526 31.3779 188.391 31.2256C188.256 31.0732 188.189 30.9062 188.189 30.7246C188.189 30.4902 188.265 30.2939 188.417 30.1357C188.575 29.9775 188.786 29.8984 189.05 29.8984C189.337 29.8984 189.601 29.9922 189.841 30.1797C190.081 30.3672 190.26 30.6953 190.377 31.1641L190.553 31.7266C190.969 31.6914 191.315 31.5508 191.59 31.3047C191.865 31.0527 192.003 30.7422 192.003 30.373C192.003 29.8926 191.769 29.5234 191.3 29.2656C190.837 29.0078 190.228 28.8789 189.472 28.8789C188.78 28.8789 188.203 29.0166 187.74 29.292C187.283 29.5674 186.946 29.9072 186.73 30.3115C186.519 30.71 186.413 31.0967 186.413 31.4717C186.413 31.9287 186.53 32.3271 186.765 32.667C187.005 33.001 187.286 33.2793 187.609 33.502C187.931 33.7188 188.35 33.9619 188.865 34.2314C189.199 34.4014 189.457 34.542 189.639 34.6533C189.826 34.7646 189.979 34.8877 190.096 35.0225C190.219 35.1572 190.28 35.3008 190.28 35.4531C190.28 35.7109 190.19 35.8955 190.008 36.0068C189.826 36.1182 189.563 36.1738 189.217 36.1738C188.871 36.1738 188.555 36.0215 188.268 35.7168C187.981 35.4062 187.752 34.9551 187.582 34.3633C187.137 34.3984 186.788 34.5303 186.536 34.7588C186.284 34.9873 186.158 35.2832 186.158 35.6465C186.158 35.957 186.284 36.2383 186.536 36.4902C186.794 36.7422 187.137 36.9414 187.565 37.0879C187.998 37.2344 188.464 37.3076 188.962 37.3076Z" fill="#333333"/>
</svg>
