<svg width="155" height="30" viewBox="0 0 155 30" fill="none" xmlns="http://www.w3.org/2000/svg">
<path fill-rule="evenodd" clip-rule="evenodd" d="M34.427 24.6192V5.92794C34.427 5.05487 35.1403 4.34763 36.0197 4.34763C36.8997 4.34763 37.6124 5.05487 37.6124 5.92794V23.0975H41.3878C42.1227 23.0975 42.719 23.6886 42.719 24.4178C42.719 25.147 42.1227 25.7387 41.3878 25.7387H35.5553C34.9321 25.7387 34.427 25.2375 34.427 24.6192Z" fill="#014168"/>
<path fill-rule="evenodd" clip-rule="evenodd" d="M51.2141 6.90213H49.584C48.9012 6.90213 48.3482 7.4514 48.3482 8.12883V13.4703C48.3482 14.1472 48.9012 14.6965 49.584 14.6965H51.2141C51.8968 14.6965 52.4504 14.1472 52.4504 13.4703V8.12883C52.4504 7.4514 51.8968 6.90213 51.2141 6.90213ZM52.4504 24.2014V17.3382H48.3482V24.2014C48.3482 25.0499 47.6544 25.7383 46.7987 25.7383C45.9431 25.7383 45.2498 25.0499 45.2498 24.2014V7.42263C45.2498 5.73141 46.6442 4.34726 48.3482 4.34726H52.4936C54.1981 4.34726 55.5921 5.73089 55.5921 7.4221V24.2014C55.5921 25.0499 54.8988 25.7383 54.0431 25.7383H53.9994C53.1437 25.7383 52.4504 25.0499 52.4504 24.2014Z" fill="#014168"/>
<path fill-rule="evenodd" clip-rule="evenodd" d="M65.3093 16.2987H63.3723C62.7623 16.2987 62.2678 16.7894 62.2678 17.3946V22.0875C62.2678 22.6932 62.7623 23.1839 63.3723 23.1839H65.3093C65.9193 23.1839 66.4138 22.6932 66.4138 22.0875V17.3946C66.4138 16.7894 65.9193 16.2987 65.3093 16.2987ZM65.0473 6.90207H63.3723C62.7623 6.90207 62.2678 7.39275 62.2678 7.99799V12.6045C62.2678 13.2103 62.7623 13.7009 63.3723 13.7009H65.0473C65.6578 13.7009 66.1523 13.2103 66.1523 12.6045V7.99799C66.1523 7.39275 65.6578 6.90207 65.0473 6.90207ZM59.1694 24.2542V5.83126C59.1694 5.01207 59.8395 4.3472 60.6651 4.3472H66.1513C67.8557 4.3472 69.2502 5.73135 69.2502 7.42257V12.8776C69.2502 14.3506 67.8536 14.913 67.5489 14.9993C67.8536 15.0867 69.5128 15.649 69.5128 17.1216V22.4908C69.5128 22.4908 69.5128 25.7382 66.3263 25.7382H60.6651C59.8395 25.7382 59.1694 25.0739 59.1694 24.2542Z" fill="#014168"/>
<path fill-rule="evenodd" clip-rule="evenodd" d="M78.9679 6.90213H76.9434C76.3334 6.90213 75.8389 7.39281 75.8389 7.99805V22.3475C75.8389 22.9527 76.3334 23.4434 76.9434 23.4434H78.9679C79.5778 23.4434 80.0724 22.9527 80.0724 22.3475V7.99805C80.0724 7.39281 79.5778 6.90213 78.9679 6.90213ZM75.7951 25.9978C74.0933 25.9978 72.6967 24.6126 72.6967 22.924V7.42263C72.6967 5.73298 74.0933 4.34726 75.7951 4.34726H80.0724C81.7742 4.34726 83.1708 5.73298 83.1708 7.42263V22.924C83.1708 24.6126 81.7742 25.9978 80.0724 25.9978H75.7951Z" fill="#014168"/>
<path fill-rule="evenodd" clip-rule="evenodd" d="M92.5392 6.94607H90.8642C90.2542 6.94607 89.7597 7.43675 89.7597 8.04199V13.2548C89.7597 13.86 90.2542 14.3507 90.8642 14.3507H92.5392C93.1492 14.3507 93.6437 13.86 93.6437 13.2548V8.04199C93.6437 7.43675 93.1492 6.94607 92.5392 6.94607ZM93.883 24.5587L92.0288 16.8622H89.7597V24.2014C89.7597 25.0499 89.0659 25.7383 88.2108 25.7383C87.3551 25.7383 86.6613 25.0499 86.6613 24.2014V5.83132C86.6613 5.01213 87.3309 4.34726 88.157 4.34726H93.6437C95.3476 4.34726 96.7421 5.73089 96.7421 7.42158V13.7439C96.7421 14.9565 96.0435 15.9959 95.0403 16.5153L96.9076 23.8237C97.1554 24.7951 96.4157 25.7383 95.4056 25.7383H95.3898C94.6728 25.7383 94.0496 25.2502 93.883 24.5587Z" fill="#014168"/>
<path fill-rule="evenodd" clip-rule="evenodd" d="M106.241 6.90213H104.217C103.607 6.90213 103.112 7.39281 103.112 7.99805V22.3475C103.112 22.9527 103.607 23.4434 104.217 23.4434H106.241C106.851 23.4434 107.346 22.9527 107.346 22.3475V7.99805C107.346 7.39281 106.851 6.90213 106.241 6.90213ZM103.069 25.9978C101.367 25.9978 99.97 24.6126 99.97 22.924V7.42263C99.97 5.73298 101.367 4.34726 103.069 4.34726H107.346C109.048 4.34726 110.444 5.73298 110.444 7.42263V22.924C110.444 24.6126 109.048 25.9978 107.346 25.9978H103.069Z" fill="#014168"/>
<path fill-rule="evenodd" clip-rule="evenodd" d="M116.859 25.998C115.155 25.998 113.76 24.6144 113.76 22.9237V7.42232C113.76 5.7311 115.155 4.34747 116.859 4.34747H121.135C122.822 4.34747 124.19 5.70442 124.19 7.37838V10.3878C124.19 11.2368 123.497 11.9253 122.641 11.9253C121.785 11.9253 121.092 11.2368 121.092 10.3878V7.99826C121.092 7.39302 120.597 6.90235 119.987 6.90235H117.963C117.353 6.90235 116.859 7.39302 116.859 7.99826V22.3472C116.859 22.953 117.353 23.4436 117.963 23.4436H119.987C120.597 23.4436 121.092 22.953 121.092 22.3472V19.3948C121.092 18.5457 121.785 17.8579 122.641 17.8579C123.497 17.8579 124.19 18.5457 124.19 19.3948V22.9242C124.19 24.6149 122.796 25.998 121.092 25.998H116.859Z" fill="#014168"/>
<path fill-rule="evenodd" clip-rule="evenodd" d="M128.572 25.551C127.717 25.551 127.023 24.8625 127.023 24.0141V5.69681C127.023 4.8478 127.717 4.15991 128.572 4.15991C129.428 4.15991 130.121 4.8478 130.121 5.69681V24.0141C130.121 24.8625 129.428 25.551 128.572 25.551Z" fill="#014168"/>
<path fill-rule="evenodd" clip-rule="evenodd" d="M137.475 25.551H137.431C136.576 25.551 135.882 24.8625 135.882 24.0141V6.75873H133.919C133.195 6.75873 132.609 6.1765 132.609 5.45932C132.609 4.74161 133.195 4.15991 133.919 4.15991H140.988C141.711 4.15991 142.297 4.74161 142.297 5.45932C142.297 6.1765 141.711 6.75873 140.988 6.75873H139.024V24.0141C139.024 24.8625 138.331 25.551 137.475 25.551Z" fill="#014168"/>
<path fill-rule="evenodd" clip-rule="evenodd" d="M147.664 25.551C145.96 25.551 144.566 24.1673 144.566 22.4766V21.0909C144.566 20.3737 145.152 19.792 145.875 19.792H146.354C147.078 19.792 147.664 20.3737 147.664 21.0909V21.9002C147.664 22.5054 148.159 22.9961 148.769 22.9961H150.531C151.141 22.9961 151.636 22.5054 151.636 21.9002V18.1599C151.636 17.5542 151.141 17.0635 150.531 17.0635H147.664C145.96 17.0635 144.566 15.6804 144.566 13.9897V5.69681C144.566 4.8478 145.259 4.15991 146.115 4.15991C146.971 4.15991 147.664 4.8478 147.664 5.69681V13.3269C147.664 13.9321 148.159 14.4228 148.769 14.4228H150.531C151.141 14.4228 151.636 13.9321 151.636 13.3269V5.69681C151.636 4.8478 152.329 4.15991 153.185 4.15991H153.229C154.084 4.15991 154.778 4.8478 154.778 5.69681V22.4766C154.778 24.1673 153.384 25.551 151.68 25.551H147.664Z" fill="#014168"/>
<mask id="mask0" mask-type="alpha" maskUnits="userSpaceOnUse" x="0" y="0" width="30" height="30">
<path fill-rule="evenodd" clip-rule="evenodd" d="M0 0.523102H29.529V29.8224H0V0.523102Z" fill="white"/>
</mask>
<g mask="url(#mask0)">
<path fill-rule="evenodd" clip-rule="evenodd" d="M29.529 15.1728C29.529 7.08186 22.9188 0.523102 14.7644 0.523102C6.61006 0.523102 -0.000106812 7.08186 -0.000106812 15.1728C-0.000106812 23.2638 6.61006 29.8225 14.7644 29.8225C22.9188 29.8225 29.529 23.2638 29.529 15.1728Z" fill="#2C7DFA"/>
<path fill-rule="evenodd" clip-rule="evenodd" d="M16.2928 8.86459C16.5454 8.36397 17.0625 8.18245 17.3367 8.36397L19.318 9.68325C19.59 9.86634 19.4629 10.5919 19.2789 10.8639L15.0396 17.6026C14.853 17.8746 14.621 17.9636 14.3485 17.7794L13.041 16.9838C11.9012 16.0218 12.1126 15.1832 12.7452 14.0962L16.2928 8.86459Z" fill="#FEFEFE"/>
<path fill-rule="evenodd" clip-rule="evenodd" d="M18.2483 6.013C17.9804 7.41075 19.1909 8.6139 20.598 8.34973C21.3794 8.20326 22.0194 7.56977 22.1691 6.79452C22.439 5.39939 21.2302 4.19466 19.8204 4.45674C19.038 4.60269 18.3969 5.2367 18.2483 6.013Z" fill="#FEFEFE"/>
<path fill-rule="evenodd" clip-rule="evenodd" d="M17.0674 8.25818L13.466 7.48136C13.1892 7.42381 12.9003 7.4777 12.6662 7.63463L9.31265 9.87616C8.83711 10.1942 8.71216 10.8335 9.0327 11.3037C9.23831 11.6071 9.57784 11.7667 9.91947 11.7583C10.1108 11.7536 10.3022 11.6961 10.472 11.582L13.4581 9.58531L16.6256 10.2706C17.186 10.394 17.738 10.0399 17.8598 9.4833C17.9816 8.92724 17.6268 8.37902 17.0674 8.25818Z" fill="#FEFEFE"/>
<path fill-rule="evenodd" clip-rule="evenodd" d="M11.2012 17.2949L10.287 18.5545H5.97493H5.96334C5.28112 18.5545 4.72492 19.0646 4.71859 19.743C4.71226 20.4246 5.26478 20.9828 5.95174 20.9886H10.9297H10.9413C11.353 20.9886 11.7843 20.7715 12.0679 20.3572L13.2199 18.6675C13.2199 18.6675 12.1022 17.9179 11.6498 17.2928C11.5391 17.14 11.3119 17.1421 11.2012 17.2949Z" fill="#FEFEFE"/>
<path fill-rule="evenodd" clip-rule="evenodd" d="M19.2244 18.1007L15.6083 15.6421C14.9335 15.186 13.9655 15.4721 13.7035 16.3289C13.5453 16.8474 13.7978 17.406 14.2481 17.7121L16.9622 19.5571L14.9097 24.1264C14.6788 24.6412 14.7727 25.2768 15.2129 25.6335C15.4596 25.8333 15.7422 25.9249 16.0185 25.9249C16.4945 25.9249 16.9495 25.6529 17.1562 25.1925L19.6578 19.6225C19.9024 19.0779 19.72 18.4376 19.2244 18.1007Z" fill="#FEFEFE"/>
<path fill-rule="evenodd" clip-rule="evenodd" d="M23.8406 13.3623L20.8719 12.9993L19.528 10.0113C19.2944 9.49394 18.6808 9.25959 18.1572 9.49342C17.6348 9.72516 17.4002 10.333 17.6337 10.853L19.2175 14.3709C19.3656 14.6999 19.6767 14.928 20.0373 14.972L23.6466 15.4119C23.6893 15.4166 23.7314 15.4192 23.7747 15.4192C24.3789 15.4192 24.8892 14.8951 24.8006 14.2375C24.7374 13.7667 24.3161 13.4204 23.8406 13.3623Z" fill="#FEFEFE"/>
</g>
</svg>
