<svg width="16" height="10" viewBox="0 0 16 10" fill="none" xmlns="http://www.w3.org/2000/svg">
<path d="M5.88019 0.599999H7.44019V9H5.91619L1.59619 3.216V9H0.0241875V0.599999H1.54819L5.88019 6.396V0.599999ZM12.2527 2.532C12.9167 2.532 13.5007 2.668 14.0047 2.94C14.5167 3.212 14.9127 3.596 15.1927 4.092C15.4807 4.58 15.6247 5.144 15.6247 5.784C15.6247 6.432 15.4807 7.004 15.1927 7.5C14.9127 7.996 14.5167 8.38 14.0047 8.652C13.5007 8.924 12.9167 9.06 12.2527 9.06C11.5807 9.06 10.9887 8.924 10.4767 8.652C9.96466 8.38 9.56466 7.996 9.27666 7.5C8.99666 7.004 8.85666 6.432 8.85666 5.784C8.85666 5.144 8.99666 4.58 9.27666 4.092C9.56466 3.596 9.96466 3.212 10.4767 2.94C10.9887 2.668 11.5807 2.532 12.2527 2.532ZM12.2527 3.864C11.7087 3.864 11.2687 4.044 10.9327 4.404C10.5967 4.764 10.4287 5.232 10.4287 5.808C10.4287 6.384 10.5967 6.852 10.9327 7.212C11.2687 7.572 11.7087 7.752 12.2527 7.752C12.7807 7.752 13.2127 7.572 13.5487 7.212C13.8847 6.852 14.0527 6.384 14.0527 5.808C14.0527 5.232 13.8847 4.764 13.5487 4.404C13.2127 4.044 12.7807 3.864 12.2527 3.864Z" fill="white"/>
</svg>
