<svg width="21" height="10" viewBox="0 0 21 10" fill="none" xmlns="http://www.w3.org/2000/svg">
<path d="M8.28019 0.599999L5.22019 6.252V9H3.61219V6.312L0.480187 0.599999H2.11219L4.40419 4.548L6.66019 0.599999H8.28019ZM11.2652 2.532C12.2892 2.532 13.0572 2.824 13.5692 3.408C14.0892 3.992 14.3492 4.812 14.3492 5.868C14.3492 6.076 14.3452 6.232 14.3372 6.336H9.59719C9.70119 6.792 9.91319 7.152 10.2332 7.416C10.5612 7.672 10.9612 7.8 11.4332 7.8C11.7612 7.8 12.0732 7.74 12.3692 7.62C12.6732 7.492 12.9372 7.312 13.1612 7.08L14.0012 7.956C13.6812 8.308 13.2892 8.58 12.8252 8.772C12.3692 8.964 11.8612 9.06 11.3012 9.06C10.6452 9.06 10.0652 8.924 9.56119 8.652C9.06519 8.38 8.68119 8 8.40919 7.512C8.13719 7.016 8.00119 6.448 8.00119 5.808C8.00119 5.168 8.13719 4.6 8.40919 4.104C8.68919 3.608 9.07719 3.224 9.57319 2.952C10.0692 2.672 10.6332 2.532 11.2652 2.532ZM12.9212 5.292C12.9052 4.82 12.7492 4.444 12.4532 4.164C12.1572 3.884 11.7652 3.744 11.2772 3.744C10.8212 3.744 10.4372 3.884 10.1252 4.164C9.82119 4.436 9.63319 4.812 9.56119 5.292H12.9212ZM19.4948 4.32C19.1828 4.136 18.8588 3.992 18.5228 3.888C18.1948 3.784 17.8908 3.732 17.6108 3.732C17.3468 3.732 17.1348 3.78 16.9748 3.876C16.8228 3.964 16.7468 4.104 16.7468 4.296C16.7468 4.496 16.8428 4.652 17.0348 4.764C17.2348 4.868 17.5468 4.98 17.9708 5.1C18.4188 5.236 18.7868 5.372 19.0748 5.508C19.3628 5.636 19.6108 5.832 19.8188 6.096C20.0348 6.352 20.1428 6.692 20.1428 7.116C20.1428 7.74 19.9028 8.22 19.4228 8.556C18.9428 8.892 18.3388 9.06 17.6108 9.06C17.1148 9.06 16.6308 8.984 16.1588 8.832C15.6868 8.672 15.2868 8.448 14.9588 8.16L15.4988 7.068C15.7868 7.316 16.1308 7.512 16.5308 7.656C16.9308 7.792 17.3108 7.86 17.6708 7.86C17.9588 7.86 18.1868 7.812 18.3548 7.716C18.5308 7.612 18.6188 7.46 18.6188 7.26C18.6188 7.036 18.5188 6.868 18.3188 6.756C18.1188 6.644 17.7948 6.52 17.3468 6.384C16.9148 6.256 16.5628 6.132 16.2908 6.012C16.0188 5.884 15.7828 5.696 15.5828 5.448C15.3828 5.192 15.2828 4.86 15.2828 4.452C15.2828 3.82 15.5108 3.34 15.9668 3.012C16.4308 2.676 17.0108 2.508 17.7068 2.508C18.1308 2.508 18.5468 2.568 18.9548 2.688C19.3708 2.808 19.7388 2.976 20.0588 3.192L19.4948 4.32Z" fill="white"/>
</svg>
